<?xml version="1.0" standalone="no"?>
<!DOCTYPE svg PUBLIC "-//W3C//DTD SVG 20010904//EN"
 "http://www.w3.org/TR/2001/REC-SVG-20010904/DTD/svg10.dtd">
<svg version="1.0" xmlns="http://www.w3.org/2000/svg"
 width="1919.000000pt" height="867.000000pt" viewBox="0 0 1919.000000 867.000000"
 preserveAspectRatio="xMidYMid meet">

<g transform="translate(0.000000,867.000000) scale(0.100000,-0.100000)"
fill="#000000" stroke="none">
<path d="M0 8660 c0 -7 3205 -10 9595 -10 6390 0 9595 3 9595 10 0 7 -3205 10
-9595 10 -6390 0 -9595 -3 -9595 -10z"/>
<path d="M16964 8416 l-34 -34 0 -182 0 -182 34 -34 34 -34 567 0 567 0 34 34
34 34 0 182 0 182 -34 34 -34 34 -567 0 -567 0 -34 -34z m766 -226 c0 -40 -4
-70 -10 -70 -6 0 -10 30 -10 70 0 40 4 70 10 70 6 0 10 -30 10 -70z m-478 17
l28 -42 0 43 c0 31 4 42 15 42 12 0 15 -14 15 -65 0 -56 -2 -65 -18 -65 -11 0
-28 17 -43 43 l-24 42 -3 -42 c-2 -29 -8 -43 -18 -43 -11 0 -14 15 -14 65 0
55 3 65 18 65 9 0 29 -19 44 -43z m428 28 c10 -12 10 -19 2 -27 -8 -8 -7 -16
1 -29 18 -29 -3 -53 -47 -57 l-36 -3 0 65 0 66 34 0 c18 0 39 -7 46 -15z
m-276 -41 c11 -28 7 -34 -24 -34 -16 0 -30 -5 -30 -11 0 -7 10 -9 25 -7 17 4
25 1 25 -8 0 -17 -51 -19 -68 -2 -7 7 -12 21 -12 33 0 12 5 26 12 33 17 17 65
15 72 -4z m36 -4 c0 -26 16 -26 23 1 7 27 30 20 37 -12 l6 -24 7 28 c4 15 14
27 22 27 12 0 12 -7 -2 -45 -16 -49 -37 -58 -47 -22 l-7 22 -9 -22 c-13 -31
-36 -29 -44 5 -4 15 -9 35 -12 45 -4 11 0 17 10 17 9 0 16 -9 16 -20z m395
-19 c0 -40 -21 -57 -58 -47 -23 5 -27 12 -27 40 0 38 10 46 55 43 27 -2 30 -5
30 -36z m105 -10 c0 -70 -6 -81 -46 -81 -19 0 -34 5 -34 10 0 6 11 10 24 10
14 0 28 5 31 10 3 6 -4 10 -17 10 -30 0 -48 17 -48 45 0 30 19 45 57 45 33 0
33 0 33 -49z"/>
<path d="M17630 8214 c0 -9 5 -14 12 -12 18 6 21 28 4 28 -9 0 -16 -7 -16 -16z"/>
<path d="M17630 8160 c0 -11 7 -20 15 -20 8 0 15 9 15 20 0 11 -7 20 -15 20
-8 0 -15 -9 -15 -20z"/>
<path d="M17358 8183 c7 -3 16 -2 19 1 4 3 -2 6 -13 5 -11 0 -14 -3 -6 -6z"/>
<path d="M17774 8175 c-4 -9 -2 -21 4 -27 15 -15 44 -1 40 19 -4 23 -36 29
-44 8z"/>
<path d="M17880 8165 c0 -20 4 -26 18 -23 9 2 17 12 17 23 0 11 -8 21 -17 23
-14 3 -18 -3 -18 -23z"/>
<path d="M18430 8387 c-78 -25 -140 -129 -127 -212 14 -87 65 -144 150 -166
147 -40 279 98 237 248 -31 107 -147 166 -260 130z m69 -184 l40 -56 4 59 c3
57 3 57 5 -16 l2 -74 -42 58 -43 58 -6 -59 -6 -58 -1 73 c-1 39 0 72 2 72 3 0
23 -26 45 -57z"/>
<path d="M930 8331 c0 -24 -3 -28 -23 -24 -32 6 -57 -21 -57 -61 0 -43 15 -54
73 -54 l47 0 0 84 c0 77 -2 84 -20 84 -15 0 -20 -7 -20 -29z m-5 -81 c0 -15
-6 -26 -16 -28 -19 -3 -31 21 -22 43 9 25 38 13 38 -15z"/>
<path d="M995 8350 c-8 -14 3 -30 21 -30 8 0 14 9 14 20 0 21 -24 28 -35 10z"/>
<path d="M520 8270 c0 -63 3 -80 14 -80 11 0 16 15 18 53 l3 52 18 -52 c24
-69 49 -72 67 -8 18 63 30 65 30 6 0 -39 4 -51 15 -51 12 0 15 16 15 81 l0 80
-27 -3 c-22 -2 -29 -12 -44 -53 -14 -41 -18 -47 -24 -30 -31 81 -34 85 -59 85
-26 0 -26 -1 -26 -80z"/>
<path d="M740 8290 c-24 -24 -25 -48 -4 -78 20 -29 84 -32 84 -3 0 14 -6 17
-24 14 -13 -3 -27 0 -30 6 -5 7 5 11 28 11 31 0 36 3 36 23 0 48 -53 64 -90
27z m58 -18 c2 -7 -6 -12 -17 -12 -21 0 -27 11 -14 24 9 9 26 2 31 -12z"/>
<path d="M990 8250 c0 -53 2 -60 20 -60 18 0 20 7 20 60 0 53 -2 60 -20 60
-18 0 -20 -7 -20 -60z"/>
<path d="M1050 8269 c0 -64 12 -77 70 -77 l50 0 0 59 c0 52 -2 59 -19 59 -16
0 -20 -8 -23 -42 -2 -30 -8 -43 -18 -43 -10 0 -16 13 -18 43 -3 34 -7 42 -23
42 -16 0 -19 -7 -19 -41z"/>
<path d="M1190 8249 c0 -52 2 -59 19 -59 16 0 20 8 23 42 4 59 28 63 28 4 0
-39 3 -46 19 -46 16 0 20 8 23 43 2 29 8 42 18 42 10 0 16 -13 18 -42 2 -30 8
-43 18 -43 12 0 14 12 12 58 l-3 57 -87 1 -88 2 0 -59z"/>
<path d="M12810 6855 c0 -87 2 -95 19 -95 17 0 20 8 23 48 2 34 7 47 18 47 11
0 16 -13 18 -47 3 -40 6 -48 23 -48 16 0 19 7 19 48 0 61 -17 87 -53 80 -25
-5 -27 -3 -27 28 0 27 -4 34 -20 34 -19 0 -20 -7 -20 -95z"/>
<path d="M12406 6865 c-15 -42 -30 -83 -33 -91 -4 -10 2 -14 21 -14 19 0 26 5
26 20 0 16 7 20 34 20 25 0 35 -5 39 -20 3 -12 14 -20 27 -20 24 0 25 -7 -14
108 -19 57 -27 67 -48 70 -23 3 -27 -3 -52 -73z m57 -33 c-22 -5 -26 4 -18 35
l8 28 12 -30 c11 -26 11 -30 -2 -33z"/>
<path d="M2527 6912 c-38 -42 -8 -102 49 -102 35 0 47 8 63 37 13 26 1 67 -24
77 -31 12 -72 6 -88 -12z"/>
<path d="M2950 6710 l0 -220 60 0 60 0 0 220 0 220 -60 0 -60 0 0 -220z"/>
<path d="M4790 6710 l0 -220 65 0 65 0 0 220 0 220 -65 0 -65 0 0 -220z"/>
<path d="M9200 6710 l0 -220 65 0 65 0 0 220 0 220 -65 0 -65 0 0 -220z"/>
<path d="M10550 6910 c-57 -57 29 -132 98 -84 14 10 22 26 22 44 0 54 -79 81
-120 40z"/>
<path d="M12733 6923 c-7 -2 -13 -11 -13 -19 0 -8 -4 -14 -10 -14 -5 0 -10 -7
-10 -15 0 -8 5 -15 10 -15 6 0 10 -17 10 -38 0 -21 5 -43 12 -50 17 -17 58
-15 58 3 0 8 -7 15 -15 15 -10 0 -15 11 -15 35 0 24 5 35 15 35 8 0 15 7 15
15 0 8 -7 15 -15 15 -8 0 -15 9 -15 20 0 20 -5 23 -27 13z"/>
<path d="M7634 6897 c-78 -38 -114 -101 -114 -200 1 -133 81 -217 207 -217
163 1 261 171 189 327 -33 70 -84 104 -168 110 -52 3 -72 0 -114 -20z m141
-112 c21 -20 25 -34 25 -85 0 -51 -4 -65 -25 -85 -31 -32 -65 -32 -96 1 -20
21 -24 36 -24 84 0 48 4 63 24 84 31 33 65 33 96 1z"/>
<path d="M2110 6860 l0 -50 60 0 60 0 0 -160 0 -160 60 0 60 0 0 160 0 160 60
0 60 0 0 50 0 50 -180 0 -180 0 0 -50z"/>
<path d="M3854 6700 l50 -210 72 0 71 0 32 118 c17 65 31 125 31 133 1 32 18
-20 44 -133 l28 -118 68 0 69 0 10 38 c31 115 91 363 91 372 0 6 -25 10 -60
10 -69 0 -61 15 -85 -154 -8 -61 -17 -111 -18 -112 -2 -2 -16 58 -31 132 l-29
135 -70 -3 -71 -3 -35 -135 c-20 -74 -37 -126 -40 -115 -2 11 -11 72 -20 135
l-16 115 -71 3 -71 3 51 -211z"/>
<path d="M8800 6701 l0 -211 114 0 c139 0 166 5 206 39 25 21 33 36 37 73 5
43 3 50 -25 78 -17 16 -39 30 -49 30 -12 0 -6 8 19 25 60 40 60 113 1 152 -22
15 -53 19 -165 21 l-138 4 0 -211z m201 103 c19 -23 -1 -48 -40 -52 -30 -3
-31 -2 -31 32 0 33 2 36 29 36 16 0 34 -7 42 -16z m3 -150 c19 -7 21 -45 4
-62 -7 -7 -27 -12 -45 -12 -32 0 -33 1 -33 40 0 38 2 40 29 40 16 0 36 -3 45
-6z"/>
<path d="M12560 6836 c0 -31 5 -58 13 -63 6 -6 33 -11 60 -11 l47 0 0 64 c0
57 -2 64 -19 64 -17 0 -20 -8 -23 -47 -2 -35 -7 -48 -18 -48 -11 0 -16 13 -18
48 -3 39 -6 47 -23 47 -16 0 -19 -7 -19 -54z"/>
<path d="M12970 6870 c-41 -41 -10 -110 50 -110 37 0 70 31 70 65 0 34 -33 65
-70 65 -17 0 -39 -9 -50 -20z m75 -29 c8 -26 -4 -51 -25 -51 -23 0 -36 36 -20
55 17 21 37 19 45 -4z"/>
<path d="M13110 6824 c0 -57 2 -64 20 -64 16 0 20 7 20 34 0 44 9 66 26 66 8
0 14 6 14 14 0 9 -13 14 -40 14 l-40 1 0 -65z"/>
<path d="M2778 6863 c-54 -14 -58 -17 -58 -44 0 -22 -5 -29 -20 -29 -17 0 -20
-7 -20 -45 0 -37 3 -45 19 -45 17 0 19 -9 23 -81 3 -77 5 -82 36 -110 25 -23
42 -29 76 -29 67 0 76 6 76 54 0 39 -2 42 -27 41 -27 0 -28 2 -31 63 l-3 62
31 0 c29 0 30 2 30 45 0 43 -1 45 -30 45 -29 0 -30 2 -30 45 0 25 -3 45 -7 44
-5 -1 -34 -8 -65 -16z"/>
<path d="M6808 6863 c-54 -14 -58 -17 -58 -44 0 -22 -5 -29 -20 -29 -17 0 -20
-7 -20 -45 0 -38 3 -45 20 -45 17 0 20 -7 20 -52 0 -115 37 -168 116 -168 65
0 74 6 74 54 0 39 -2 42 -27 41 -27 0 -28 2 -31 63 l-3 62 31 0 c29 0 30 2 30
45 0 43 -1 45 -30 45 -29 0 -30 2 -30 45 0 25 -3 45 -7 44 -5 -1 -34 -8 -65
-16z"/>
<path d="M3197 6779 c-52 -27 -81 -92 -75 -161 9 -90 69 -139 168 -137 92 2
105 8 108 58 3 39 1 43 -15 36 -46 -19 -98 -17 -123 4 l-25 20 99 1 99 0 -6
56 c-3 30 -13 67 -22 80 -41 63 -134 82 -208 43z m111 -81 c3 -26 1 -28 -32
-28 -40 0 -40 -1 -26 35 14 37 54 32 58 -7z"/>
<path d="M4540 6789 c-59 -24 -93 -80 -93 -154 0 -69 24 -112 76 -136 46 -20
130 -25 171 -9 22 8 26 16 26 50 0 38 -1 39 -26 30 -33 -13 -80 -13 -105 0
-39 21 -18 30 71 30 l90 0 0 48 c0 62 -26 113 -70 134 -38 20 -101 22 -140 7z
m88 -71 c7 -7 12 -20 12 -30 0 -14 -8 -18 -35 -18 -27 0 -35 4 -35 18 0 20 18
42 35 42 6 0 16 -5 23 -12z"/>
<path d="M5050 6778 c-54 -29 -80 -74 -80 -144 0 -93 65 -154 165 -154 85 0
95 6 95 55 l0 43 -43 -5 c-56 -7 -90 19 -90 67 0 48 34 74 90 67 l43 -5 0 43
c0 50 -8 55 -84 55 -34 0 -67 -8 -96 -22z"/>
<path d="M5355 6786 c-86 -39 -117 -134 -74 -222 55 -114 254 -113 310 2 37
77 17 155 -54 208 -34 25 -138 33 -182 12z m115 -95 c15 -29 12 -87 -6 -105
-34 -35 -74 -6 -74 54 0 61 55 96 80 51z"/>
<path d="M5816 6775 c-34 -23 -36 -23 -36 -5 0 18 -7 20 -60 20 l-60 0 0 -150
0 -150 60 0 60 0 0 84 c0 104 11 139 43 134 21 -3 22 -8 25 -110 l3 -108 64 0
64 0 3 101 c3 86 6 104 21 113 33 20 47 -16 47 -121 l0 -93 60 0 60 0 0 126 0
126 -30 30 c-28 27 -36 30 -76 25 -26 -3 -55 -13 -67 -25 l-22 -21 -28 25
c-37 31 -84 31 -131 -1z"/>
<path d="M6310 6789 c-59 -24 -93 -80 -93 -154 0 -69 24 -112 76 -136 46 -20
130 -25 171 -9 22 8 26 16 26 50 0 38 -1 39 -26 30 -33 -13 -80 -13 -105 0
-39 21 -18 30 71 30 l90 0 0 48 c0 62 -26 113 -70 134 -38 20 -101 22 -140 7z
m88 -71 c7 -7 12 -20 12 -30 0 -14 -8 -18 -35 -18 -27 0 -35 4 -35 18 0 20 18
42 35 42 6 0 16 -5 23 -12z"/>
<path d="M7053 6780 c-56 -25 -83 -70 -83 -138 0 -63 18 -102 62 -134 28 -19
45 -23 108 -23 84 0 127 21 155 75 22 42 19 128 -5 168 -25 41 -89 72 -150 72
-25 0 -64 -9 -87 -20z m118 -86 c7 -9 14 -33 14 -54 0 -42 -18 -70 -45 -70
-27 0 -43 26 -43 70 0 63 42 93 74 54z"/>
<path d="M8516 6779 c-21 -17 -26 -18 -26 -5 0 13 -13 16 -65 16 l-65 0 0
-150 0 -150 65 0 65 0 0 84 c0 97 11 116 66 116 l34 0 0 55 c0 51 -2 55 -24
55 -13 0 -35 -9 -50 -21z"/>
<path d="M9463 6780 c-56 -25 -83 -70 -83 -138 0 -63 18 -102 62 -134 28 -19
45 -23 108 -23 84 0 127 21 155 75 22 42 19 128 -5 168 -25 41 -89 72 -150 72
-25 0 -64 -9 -87 -20z m118 -86 c7 -9 14 -33 14 -54 0 -42 -18 -70 -45 -70
-27 0 -43 26 -43 70 0 63 42 93 74 54z"/>
<path d="M9826 6780 c-17 -10 -38 -34 -48 -52 -22 -43 -23 -138 -2 -184 28
-59 102 -81 164 -49 28 15 30 14 30 -3 0 -48 -80 -75 -143 -48 l-37 15 0 -53
c0 -61 6 -66 94 -66 104 0 183 48 205 125 6 22 11 104 11 183 l0 142 -65 0
c-39 0 -65 -4 -65 -11 0 -5 -10 -3 -22 5 -31 22 -87 20 -122 -4z m132 -82 c15
-15 16 -82 2 -109 -13 -23 -43 -25 -60 -4 -7 9 -13 33 -13 55 0 60 38 91 71
58z"/>
<path d="M10212 6780 c-88 -54 -96 -222 -13 -277 39 -27 84 -29 125 -8 35 19
40 15 25 -18 -21 -45 -81 -59 -144 -33 l-35 15 0 -50 c0 -44 3 -51 26 -59 63
-24 173 -6 225 37 52 44 59 75 59 248 l0 155 -59 0 c-37 0 -61 -4 -63 -12 -3
-8 -11 -7 -28 5 -33 23 -78 21 -118 -3z m132 -92 c9 -12 16 -34 16 -48 0 -57
-57 -93 -80 -51 -23 43 0 121 35 121 8 0 21 -10 29 -22z"/>
<path d="M10881 6774 c-30 -25 -31 -25 -31 -5 0 19 -6 21 -65 21 l-65 0 0
-150 0 -150 65 0 64 0 3 101 c2 82 6 104 20 112 12 8 21 7 32 -2 13 -11 16
-34 16 -112 l0 -99 66 0 66 0 -4 118 c-3 64 -11 129 -18 143 -25 53 -100 65
-149 23z"/>
<path d="M11156 6780 c-17 -10 -38 -34 -48 -52 -22 -43 -23 -138 -2 -184 28
-59 102 -81 164 -49 28 15 30 14 30 -3 0 -48 -80 -75 -143 -48 l-37 15 0 -53
c0 -61 6 -66 94 -66 104 0 183 48 205 125 6 22 11 104 11 183 l0 142 -65 0
c-39 0 -65 -4 -65 -11 0 -5 -10 -3 -22 5 -31 22 -87 20 -122 -4z m132 -82 c15
-15 16 -82 2 -109 -13 -23 -43 -25 -60 -4 -7 9 -13 33 -13 55 0 60 38 91 71
58z"/>
<path d="M2510 6640 l0 -150 65 0 65 0 0 150 0 150 -65 0 -65 0 0 -150z"/>
<path d="M3488 6778 c-46 -36 -15 -108 46 -108 58 0 89 66 48 103 -22 20 -72
22 -94 5z"/>
<path d="M7980 6681 c0 -59 5 -122 11 -140 19 -55 93 -77 154 -45 19 10 31 11
33 5 2 -6 30 -11 63 -11 l59 0 0 150 0 150 -60 0 -60 0 0 -84 c0 -104 -11
-139 -43 -134 -21 3 -22 8 -25 111 l-3 107 -64 0 -65 0 0 -109z"/>
<path d="M10540 6640 l0 -150 65 0 65 0 0 150 0 150 -65 0 -65 0 0 -150z"/>
<path d="M3488 6588 c-46 -36 -15 -108 46 -108 58 0 89 66 48 103 -22 20 -72
22 -94 5z"/>
<path d="M12890 6400 c0 -83 2 -90 20 -90 16 0 19 8 22 57 l3 58 35 -58 c26
-43 40 -57 57 -57 22 0 23 3 23 90 0 83 -2 90 -20 90 -16 0 -19 -8 -22 -57
l-3 -58 -35 57 c-26 42 -41 58 -57 58 -22 0 -23 -3 -23 -90z"/>
<path d="M13080 6400 c0 -89 0 -90 25 -90 25 0 25 1 25 90 0 89 0 90 -25 90
-25 0 -25 -1 -25 -90z"/>
<path d="M13160 6401 c0 -84 1 -91 20 -91 18 0 20 7 21 63 l1 62 21 -62 c28
-83 48 -84 75 -5 l20 57 1 -57 c1 -51 3 -58 21 -58 19 0 20 7 20 90 l0 90 -28
0 c-26 0 -30 -5 -48 -62 l-20 -63 -20 60 c-19 55 -23 60 -52 63 l-32 3 0 -90z"/>
<path d="M13400 6400 c0 -83 1 -90 20 -90 19 0 20 7 20 90 0 83 -1 90 -20 90
-19 0 -20 -7 -20 -90z"/>
<path d="M13470 6475 c0 -9 9 -15 25 -15 24 0 25 -2 25 -75 0 -68 2 -75 20
-75 18 0 20 7 20 75 0 73 1 75 25 75 16 0 25 6 25 15 0 12 -14 15 -70 15 -56
0 -70 -3 -70 -15z"/>
<path d="M13705 6470 c-25 -28 -13 -62 30 -83 19 -9 35 -21 35 -27 0 -18 -30
-23 -56 -11 -23 10 -25 9 -22 -11 2 -19 10 -24 44 -26 81 -6 102 60 34 103
-45 28 -44 49 1 43 23 -4 29 -1 29 14 0 26 -70 25 -95 -2z"/>
<path d="M13855 6465 c-53 -53 -18 -155 54 -155 43 0 60 9 76 41 36 69 0 139
-70 139 -25 0 -44 -8 -60 -25z m95 -38 c13 -24 13 -30 0 -54 -19 -33 -42 -40
-64 -18 -33 33 -9 111 32 103 9 -2 23 -15 32 -31z"/>
<path d="M14030 6400 l0 -90 50 0 c69 0 100 30 100 94 0 59 -31 86 -101 86
l-49 0 0 -90z m94 44 c34 -33 10 -104 -35 -104 -17 0 -19 7 -19 60 0 53 2 60
19 60 11 0 27 -7 35 -16z"/>
<path d="M14210 6400 c0 -83 1 -90 20 -90 17 0 20 7 20 40 0 39 1 40 35 40 34
0 35 -1 35 -40 0 -36 3 -40 25 -40 25 0 25 1 25 90 0 89 0 90 -25 90 -22 0
-25 -4 -25 -35 0 -33 -2 -35 -35 -35 -33 0 -35 2 -35 35 0 28 -4 35 -20 35
-19 0 -20 -7 -20 -90z"/>
<path d="M14439 6463 c-21 -52 -49 -136 -49 -145 0 -17 39 -7 45 12 5 14 15
20 37 20 21 0 31 -6 35 -20 3 -13 14 -20 28 -20 l24 0 -31 90 c-27 80 -32 90
-54 90 -17 0 -28 -8 -35 -27z m45 -55 c5 -24 3 -28 -14 -28 -23 0 -23 0 -10
36 12 31 15 30 24 -8z"/>
<path d="M14580 6400 c0 -83 2 -90 20 -90 16 0 19 8 22 57 l3 58 35 -58 c26
-43 40 -57 57 -57 22 0 23 3 23 90 0 83 -2 90 -20 90 -16 0 -19 -8 -22 -57
l-3 -58 -35 57 c-26 42 -41 58 -57 58 -22 0 -23 -3 -23 -90z"/>
<path d="M14770 6400 c0 -89 0 -90 25 -90 25 0 25 1 25 90 0 89 0 90 -25 90
-25 0 -25 -1 -25 -90z"/>
<path d="M3394 6326 c-39 -17 -63 -50 -71 -98 -5 -32 -10 -38 -29 -38 -22 0
-24 -4 -24 -45 0 -41 2 -45 25 -45 l25 0 0 -105 0 -105 65 0 65 0 0 105 0 105
35 0 c35 0 35 0 35 45 0 45 0 45 -35 45 -27 0 -35 4 -35 18 0 26 20 42 53 42
27 0 28 2 25 43 l-3 42 -50 2 c-27 2 -64 -4 -81 -11z"/>
<path d="M2520 6110 l0 -220 65 0 65 0 0 220 0 220 -65 0 -65 0 0 -220z"/>
<path d="M9860 6110 l0 -220 60 0 60 0 0 93 c0 105 14 141 47 121 15 -9 18
-27 21 -113 l3 -101 60 0 61 0 -4 131 c-3 129 -3 131 -31 155 -16 13 -41 24
-57 24 -33 0 -80 -19 -80 -32 0 -4 -4 -8 -10 -8 -6 0 -10 35 -10 85 l0 85 -60
0 -60 0 0 -220z"/>
<path d="M9595 6307 c-51 -23 -85 -72 -85 -120 0 -60 29 -100 93 -130 67 -32
84 -51 67 -72 -18 -22 -61 -18 -114 10 l-46 24 0 -59 0 -59 38 -10 c146 -41
280 27 269 137 -6 54 -33 84 -109 123 -41 21 -58 35 -58 49 0 29 43 36 101 17
l49 -15 0 48 c0 27 -5 52 -12 56 -23 15 -162 15 -193 1z"/>
<path d="M2140 6100 l0 -210 65 0 65 0 0 69 0 68 62 6 c97 9 152 62 151 145
-1 102 -53 132 -228 132 l-115 0 0 -210z m194 104 c35 -35 10 -84 -43 -84 -18
0 -21 6 -21 50 0 46 2 50 24 50 14 0 32 -7 40 -16z"/>
<path d="M5175 6113 c-37 -109 -70 -204 -73 -210 -3 -10 14 -13 66 -13 l70 0
9 38 9 37 61 3 62 3 11 -41 11 -40 68 0 68 0 -66 208 -67 207 -81 3 -80 3 -68
-198z m167 10 l16 -63 -40 0 c-37 0 -40 2 -34 23 4 12 12 43 18 70 6 26 15 44
18 40 4 -5 14 -36 22 -70z"/>
<path d="M5750 6100 l0 -210 60 0 60 0 0 122 0 121 87 -121 86 -122 59 0 58 0
0 210 0 210 -60 0 -59 0 -3 -110 -3 -110 -80 110 -80 110 -62 0 -63 0 0 -210z"/>
<path d="M7264 6100 l50 -210 72 0 71 0 32 118 c17 65 31 125 31 133 1 32 18
-20 44 -133 l28 -118 68 0 69 0 10 38 c31 115 91 363 91 372 0 6 -25 10 -60
10 -69 0 -61 15 -85 -154 -8 -61 -17 -111 -18 -112 -2 -2 -16 58 -31 132 l-29
135 -70 -3 -71 -3 -35 -135 c-20 -74 -37 -126 -40 -115 -2 11 -11 72 -20 135
l-16 115 -71 3 -71 3 51 -211z"/>
<path d="M3123 6262 c-48 -13 -53 -18 -53 -43 0 -24 -4 -29 -25 -29 -23 0 -25
-4 -25 -45 0 -41 2 -45 25 -45 24 0 25 -2 25 -70 0 -38 5 -81 12 -95 15 -34
56 -55 107 -55 63 0 71 7 71 56 0 42 -1 44 -24 38 -31 -7 -46 18 -46 80 0 46
0 46 35 46 35 0 35 0 35 45 0 45 0 45 -35 45 -35 0 -35 0 -35 45 0 25 -3 44
-7 44 -5 -1 -32 -8 -60 -17z"/>
<path d="M8798 6263 c-54 -14 -58 -17 -58 -44 0 -22 -5 -29 -20 -29 -17 0 -20
-7 -20 -45 0 -37 3 -45 19 -45 17 0 19 -9 23 -81 3 -77 5 -82 36 -110 25 -23
42 -29 76 -29 67 0 76 6 76 54 0 39 -2 42 -27 41 -27 0 -28 2 -31 63 l-3 62
31 0 c29 0 30 2 30 45 0 43 -1 45 -30 45 -29 0 -30 2 -30 45 0 25 -3 45 -7 44
-5 -1 -34 -8 -65 -16z"/>
<path d="M12500 6247 c-78 -25 -140 -129 -127 -212 14 -87 65 -144 150 -166
147 -40 279 98 237 248 -31 107 -147 166 -260 130z m65 -185 l40 -57 6 60 6
60 1 -72 c1 -40 0 -73 -2 -73 -2 0 -23 26 -47 58 l-44 57 -6 -60 -6 -60 -1 73
c-1 39 1 72 6 72 4 0 25 -26 47 -58z"/>
<path d="M2758 6188 c-36 -10 -38 -12 -38 -53 l0 -43 37 19 c43 22 83 25 101
7 21 -21 14 -26 -50 -37 -50 -8 -69 -17 -90 -41 -79 -87 34 -212 126 -139 21
17 26 18 26 5 0 -13 12 -16 60 -16 l60 0 0 105 c0 129 -14 169 -64 190 -40 17
-112 18 -168 3z m112 -181 c0 -45 -53 -66 -65 -26 -9 28 5 40 58 48 4 0 7 -9
7 -22z"/>
<path d="M3635 6186 c-86 -39 -117 -134 -74 -222 55 -114 254 -113 310 2 37
77 17 155 -54 208 -34 25 -138 33 -182 12z m115 -95 c15 -29 12 -87 -6 -105
-34 -35 -74 -6 -74 54 0 61 55 96 80 51z"/>
<path d="M4085 6175 c-23 -22 -25 -23 -25 -5 0 18 -7 20 -65 20 l-65 0 0 -150
0 -150 65 0 65 0 0 80 c0 91 17 120 70 120 30 0 30 1 30 55 0 52 -1 55 -25 55
-14 0 -37 -11 -50 -25z"/>
<path d="M4356 6175 c-34 -23 -36 -23 -36 -5 0 18 -7 20 -65 20 l-65 0 0 -150
0 -150 65 0 64 0 3 101 c2 82 6 104 20 112 12 8 21 7 32 -2 13 -11 16 -34 16
-112 l0 -99 65 0 64 0 3 108 c3 107 3 107 28 107 25 0 25 0 28 -107 l3 -108
64 0 65 0 0 110 c0 158 -22 200 -104 200 -22 0 -45 -9 -65 -25 l-30 -26 -25
26 c-33 33 -81 33 -130 0z"/>
<path d="M6310 6189 c-59 -24 -93 -80 -93 -154 0 -69 24 -112 76 -136 46 -20
130 -25 171 -9 22 8 26 16 26 50 0 38 -1 39 -26 30 -33 -13 -80 -13 -105 0
-39 21 -18 30 71 30 l90 0 0 48 c0 62 -26 113 -70 134 -38 20 -101 22 -140 7z
m88 -71 c7 -7 12 -20 12 -30 0 -14 -8 -18 -35 -18 -27 0 -35 4 -35 18 0 20 18
42 35 42 6 0 16 -5 23 -12z"/>
<path d="M7918 6188 c-37 -10 -38 -12 -38 -54 l0 -44 40 20 c48 25 83 26 106
3 17 -17 15 -19 -44 -29 -72 -13 -109 -35 -123 -72 -37 -96 72 -172 150 -106
30 25 31 25 31 5 0 -19 6 -21 55 -21 l55 0 0 110 c0 128 -12 164 -65 186 -39
16 -112 17 -167 2z m117 -180 c-12 -38 -33 -54 -53 -42 -24 16 -21 36 8 51 39
20 52 17 45 -9z"/>
<path d="M9062 6193 c-36 -7 -89 -64 -101 -111 -30 -110 45 -202 167 -202 104
0 172 65 172 165 0 114 -98 175 -238 148z m96 -95 c7 -7 12 -33 12 -58 0 -69
-41 -95 -74 -48 -41 58 15 153 62 106z"/>
<path d="M10278 6188 c-36 -10 -38 -12 -38 -53 l0 -43 37 19 c43 22 83 25 101
7 21 -21 14 -26 -50 -37 -50 -8 -69 -17 -90 -41 -79 -87 34 -212 126 -139 21
17 26 18 26 5 0 -13 12 -16 60 -16 l60 0 0 105 c0 129 -14 169 -64 190 -40 17
-112 18 -168 3z m112 -181 c0 -45 -53 -66 -65 -26 -9 28 5 40 58 48 4 0 7 -9
7 -22z"/>
<path d="M10715 6175 c-23 -22 -25 -23 -25 -5 0 18 -7 20 -65 20 l-65 0 0
-150 0 -150 65 0 65 0 0 80 c0 91 17 120 70 120 30 0 30 1 30 55 0 52 -1 55
-25 55 -14 0 -37 -11 -50 -25z"/>
<path d="M10910 6189 c-59 -24 -93 -80 -93 -154 0 -69 24 -112 76 -136 46 -20
130 -25 171 -9 22 8 26 16 26 50 0 38 -1 39 -26 30 -33 -13 -80 -13 -105 0
-39 21 -18 30 71 30 l90 0 0 48 c0 62 -26 113 -70 134 -38 20 -101 22 -140 7z
m88 -71 c7 -7 12 -20 12 -30 0 -14 -8 -18 -35 -18 -27 0 -35 4 -35 18 0 20 18
42 35 42 6 0 16 -5 23 -12z"/>
<path d="M4780 6170 c-57 -57 29 -132 98 -84 14 10 22 26 22 44 0 54 -79 81
-120 40z"/>
<path d="M6546 6163 c4 -16 21 -82 39 -148 l31 -120 66 -3 66 -3 16 70 c9 38
16 78 16 88 1 36 17 -10 30 -84 l13 -73 67 0 66 0 17 63 c9 34 28 101 41 150
l25 87 -58 0 -58 0 -7 -71 c-12 -115 -21 -124 -35 -34 -18 109 -15 105 -82
105 -56 0 -59 -1 -65 -27 -3 -16 -14 -59 -23 -98 l-18 -70 -13 98 -13 97 -63
0 -64 0 6 -27z"/>
<path d="M8234 6038 c66 -162 70 -189 26 -203 -12 -4 -32 -4 -46 -1 -23 6 -24
4 -24 -38 0 -50 8 -56 74 -56 50 0 101 30 127 75 10 17 45 108 78 203 l61 173
-62 -3 -62 -3 -20 -82 c-11 -46 -23 -83 -26 -83 -3 0 -15 37 -26 83 l-20 82
-71 3 -72 3 63 -153z"/>
<path d="M13003 5985 c0 -44 2 -61 4 -37 2 23 2 59 0 80 -2 20 -4 1 -4 -43z"/>
<path d="M13823 5985 c-1 -56 1 -69 6 -45 9 45 18 60 36 60 14 0 19 -12 29
-70 2 -14 3 -2 2 25 -1 50 -1 50 -33 49 -29 -2 -32 1 -36 30 -2 17 -4 -5 -4
-49z"/>
<path d="M14090 5987 l0 -74 32 -1 c41 -1 58 13 58 48 0 34 -22 54 -50 45 -17
-5 -20 -2 -20 24 0 17 -4 31 -10 31 -6 0 -10 -31 -10 -73z m74 -10 c14 -22 -4
-52 -30 -52 -14 0 -20 8 -22 29 -5 44 29 59 52 23z"/>
<path d="M15253 5985 c0 -44 2 -63 4 -43 8 70 53 76 53 7 0 -21 5 -39 10 -39
16 0 12 76 -5 90 -8 6 -23 9 -34 5 -16 -5 -20 -1 -24 27 -2 18 -4 -3 -4 -47z"/>
<path d="M16213 5985 c0 -44 2 -63 4 -43 5 42 27 68 45 50 6 -6 14 -28 18 -49
l8 -38 1 41 c1 47 -17 69 -48 59 -16 -5 -20 -1 -24 27 -2 18 -4 -3 -4 -47z"/>
<path d="M16673 5985 c-1 -56 1 -69 6 -45 9 45 18 60 36 60 14 0 19 -12 29
-70 2 -14 3 -2 2 25 -1 50 -1 50 -33 49 -29 -2 -32 1 -36 30 -2 17 -4 -5 -4
-49z"/>
<path d="M12890 5980 l0 -71 31 3 c37 3 56 27 44 54 -4 11 -8 33 -9 49 -1 26
-5 30 -33 33 l-33 3 0 -71z m49 51 c19 -12 6 -41 -19 -41 -15 0 -20 7 -20 25
0 26 14 31 39 16z m11 -66 c16 -19 -3 -45 -31 -45 -14 0 -19 7 -19 30 0 23 5
30 19 30 10 0 24 -7 31 -15z"/>
<path d="M13761 6028 c0 -10 -7 -18 -13 -18 -10 0 -10 -2 -1 -8 6 -4 13 -25
15 -47 2 -31 8 -41 23 -43 18 -2 18 -2 3 8 -12 7 -18 23 -18 45 0 24 5 35 18
38 15 4 15 5 0 6 -9 0 -19 9 -21 19 -4 16 -5 16 -6 0z"/>
<path d="M14411 6028 c0 -10 -7 -18 -13 -18 -10 0 -10 -2 -1 -8 6 -4 13 -25
15 -46 2 -24 9 -41 18 -44 12 -4 13 -2 3 9 -20 20 -16 77 5 82 15 4 15 5 0 6
-9 0 -19 9 -21 19 -4 16 -5 16 -6 0z"/>
<path d="M14931 6028 c0 -10 -7 -18 -13 -18 -10 0 -10 -2 -1 -8 6 -4 13 -25
15 -46 2 -24 9 -41 18 -44 12 -4 13 -2 3 9 -20 20 -16 77 5 82 15 4 15 5 0 6
-9 0 -19 9 -21 19 -4 16 -5 16 -6 0z"/>
<path d="M16151 6028 c0 -10 -7 -18 -13 -18 -10 0 -10 -2 -1 -8 6 -4 13 -25
15 -46 2 -24 9 -41 18 -44 12 -4 13 -2 3 9 -20 20 -16 77 5 82 15 4 15 5 0 6
-9 0 -19 9 -21 19 -4 16 -5 16 -6 0z"/>
<path d="M16791 6028 c0 -10 -7 -18 -13 -18 -10 0 -10 -2 -1 -8 6 -4 13 -25
15 -47 2 -31 8 -41 23 -43 18 -2 18 -2 3 8 -12 7 -18 23 -18 45 0 24 5 35 18
38 15 4 15 5 0 6 -9 0 -19 9 -21 19 -4 16 -5 16 -6 0z"/>
<path d="M13056 5994 c-30 -30 -9 -84 33 -84 22 0 51 30 51 53 0 21 -27 47
-50 47 -10 0 -26 -7 -34 -16z m48 0 c31 -12 15 -74 -19 -74 -7 0 -35 32 -35
40 0 8 28 40 35 40 2 0 10 -3 19 -6z"/>
<path d="M13175 5994 c-35 -36 -7 -92 40 -80 14 4 25 2 25 -3 0 -18 -33 -43
-51 -38 -11 3 -19 1 -19 -4 0 -15 47 -10 64 7 11 10 16 34 16 72 0 56 -1 57
-30 59 -16 1 -36 -5 -45 -13z m55 -9 c16 -19 -1 -65 -24 -65 -26 0 -40 28 -28
55 13 28 34 32 52 10z"/>
<path d="M13287 6003 c-15 -14 -6 -40 19 -51 28 -13 23 -37 -7 -29 -11 3 -19
1 -19 -4 0 -10 21 -12 44 -3 24 9 19 33 -9 46 -30 13 -28 33 3 32 12 0 19 3
16 8 -6 10 -38 11 -47 1z"/>
<path d="M13436 6002 c-3 -5 4 -8 16 -8 34 1 32 -22 -2 -29 -25 -5 -31 -11
-28 -28 2 -17 10 -22 36 -22 33 -1 33 -1 30 45 -3 37 -7 46 -25 48 -11 2 -24
-1 -27 -6z m44 -51 c0 -5 -7 -14 -15 -21 -12 -10 -19 -10 -28 -1 -9 9 -9 14 3
21 19 12 40 13 40 1z"/>
<path d="M13520 5959 c0 -27 5 -49 10 -49 6 0 10 18 10 40 0 26 6 42 17 48 13
8 11 10 -10 10 -26 0 -27 -3 -27 -49z"/>
<path d="M13602 5998 c-7 -7 -12 -24 -12 -38 0 -14 5 -31 12 -38 14 -14 58
-16 58 -2 0 5 -7 7 -15 4 -16 -6 -45 12 -45 27 0 5 16 9 35 9 22 0 35 5 35 13
0 18 -21 37 -40 37 -9 0 -21 -5 -28 -12z m48 -13 c11 -13 8 -15 -20 -15 -28 0
-31 2 -20 15 7 8 16 15 20 15 4 0 13 -7 20 -15z"/>
<path d="M13942 5998 c-7 -7 -12 -24 -12 -38 0 -14 5 -31 12 -38 14 -14 58
-16 58 -2 0 5 -7 7 -15 4 -16 -6 -45 12 -45 27 0 5 16 9 35 9 22 0 35 5 35 13
0 18 -21 37 -40 37 -9 0 -21 -5 -28 -12z m48 -13 c11 -13 8 -15 -20 -15 -28 0
-31 2 -20 15 7 8 16 15 20 15 4 0 13 -7 20 -15z"/>
<path d="M14222 5998 c-7 -7 -12 -24 -12 -38 0 -14 5 -31 12 -38 15 -15 45
-15 54 0 4 7 3 8 -5 4 -16 -10 -51 3 -51 20 0 9 11 14 35 14 22 0 35 5 35 13
0 18 -21 37 -40 37 -9 0 -21 -5 -28 -12z m48 -13 c11 -13 8 -15 -19 -15 -31 0
-42 14 -18 23 20 9 24 8 37 -8z"/>
<path d="M14323 6003 c-21 -8 -14 -33 12 -45 30 -13 27 -33 -4 -32 -11 0 -21
-3 -21 -8 0 -5 12 -8 28 -6 38 4 42 40 7 56 -29 13 -24 37 6 29 11 -3 19 -1
19 4 0 10 -26 11 -47 2z"/>
<path d="M14510 6009 c0 -3 7 -26 16 -52 17 -51 29 -53 39 -7 8 36 21 31 30
-10 4 -17 10 -30 14 -30 10 0 36 89 28 96 -3 3 -9 -10 -12 -30 -9 -46 -21 -46
-29 -1 -9 46 -20 44 -36 -7 l-13 -43 -9 35 c-8 30 -28 65 -28 49z"/>
<path d="M14675 6000 c-4 -6 3 -9 16 -7 34 3 33 -17 -2 -30 -45 -17 -36 -47
14 -50 36 -1 37 0 37 36 0 20 -5 42 -12 49 -15 15 -45 16 -53 2z m45 -55 c0
-19 -24 -30 -41 -19 -9 5 -7 11 6 21 24 17 35 17 35 -2z"/>
<path d="M14760 6006 c0 -5 8 -30 17 -57 17 -46 16 -49 -1 -68 -11 -12 -14
-21 -9 -21 15 0 27 18 51 79 28 68 28 91 0 31 l-20 -45 -14 39 c-14 39 -24 56
-24 42z"/>
<path d="M14996 5994 c-30 -30 -9 -84 33 -84 22 0 51 30 51 53 0 21 -27 47
-50 47 -10 0 -26 -7 -34 -16z m48 0 c31 -12 15 -74 -19 -74 -7 0 -35 32 -35
40 0 8 28 40 35 40 2 0 10 -3 19 -6z"/>
<path d="M15167 6003 c-15 -14 -6 -40 19 -51 28 -13 23 -37 -7 -29 -11 3 -19
1 -19 -4 0 -15 37 -10 51 7 11 14 10 18 -5 30 -10 7 -23 15 -29 17 -6 2 -7 9
-3 16 5 7 14 10 22 7 8 -3 14 -1 14 4 0 11 -33 14 -43 3z"/>
<path d="M15365 6000 c-4 -6 3 -9 16 -7 34 3 33 -17 -2 -30 -45 -17 -36 -47
14 -50 36 -1 37 0 37 36 0 20 -5 42 -12 49 -15 15 -45 16 -53 2z m45 -55 c0
-19 -24 -30 -41 -19 -9 5 -7 11 6 21 24 17 35 17 35 -2z"/>
<path d="M15461 5955 l1 -50 8 39 c4 22 15 45 24 52 15 11 14 12 -8 10 -24 -1
-26 -4 -25 -51z"/>
<path d="M15542 5998 c-7 -7 -12 -24 -12 -38 0 -14 5 -31 12 -38 15 -15 45
-15 54 0 4 7 3 8 -5 4 -16 -10 -51 3 -51 20 0 9 11 14 35 14 22 0 35 5 35 13
0 18 -21 37 -40 37 -9 0 -21 -5 -28 -12z m48 -13 c11 -13 8 -15 -19 -15 -31 0
-42 14 -18 23 20 9 24 8 37 -8z"/>
<path d="M15680 6006 c0 -5 8 -30 17 -57 17 -46 16 -49 -1 -68 -11 -12 -14
-21 -9 -21 15 0 27 18 51 79 28 68 28 91 0 31 l-20 -45 -14 39 c-14 39 -24 56
-24 42z"/>
<path d="M15796 5994 c-31 -30 -9 -84 34 -84 11 0 27 11 36 25 15 23 15 27 0
50 -19 29 -47 32 -70 9z m48 0 c35 -13 14 -74 -24 -74 -18 0 -31 39 -20 60 11
21 19 24 44 14z"/>
<path d="M15901 5974 c-1 -47 12 -63 51 -61 27 2 28 4 26 52 -1 42 -2 44 -5
13 -5 -42 -27 -68 -45 -50 -6 6 -14 28 -18 49 l-8 38 -1 -41z"/>
<path d="M16022 5955 l1 -50 6 44 c4 31 12 46 26 52 17 6 15 7 -7 6 -27 -1
-28 -3 -26 -52z"/>
<path d="M16331 5996 c-17 -20 -10 -67 11 -79 27 -18 68 7 68 41 0 15 -5 33
-12 40 -16 16 -53 15 -67 -2z m57 -8 c17 -17 15 -43 -4 -59 -31 -26 -70 25
-44 56 15 18 32 19 48 3z"/>
<path d="M16444 5965 l1 -50 38 -2 37 -1 0 49 c0 60 -18 65 -22 7 -2 -35 -7
-43 -23 -43 -16 0 -21 9 -26 45 l-7 45 2 -50z"/>
<path d="M16562 5998 c-17 -17 -15 -63 3 -78 8 -6 23 -9 35 -5 14 4 20 2 20
-8 0 -23 -27 -39 -51 -32 -14 5 -19 4 -15 -4 12 -19 54 -12 70 11 10 13 16 43
16 74 0 51 0 51 -33 52 -19 1 -39 -4 -45 -10z m56 -34 c2 -22 -2 -33 -14 -38
-34 -13 -59 35 -32 62 21 21 43 9 46 -24z"/>
<path d="M16857 6003 c-15 -14 -6 -40 19 -51 28 -13 23 -37 -7 -29 -11 3 -19
1 -19 -4 0 -15 37 -10 51 7 11 14 10 18 -5 30 -10 7 -23 15 -29 17 -6 2 -7 9
-3 16 5 7 14 10 22 7 8 -3 14 -1 14 4 0 11 -33 14 -43 3z"/>
<path d="M4780 5980 c-57 -57 29 -132 98 -84 14 10 22 26 22 44 0 54 -79 81
-120 40z"/>
<path d="M13153 5685 c0 -44 2 -63 4 -43 8 70 53 76 53 7 0 -21 5 -39 10 -39
16 0 12 76 -5 90 -8 6 -23 9 -34 5 -16 -5 -20 -1 -24 27 -2 18 -4 -3 -4 -47z"/>
<path d="M13383 5685 c-1 -56 1 -69 6 -45 9 45 18 60 36 60 14 0 19 -12 29
-70 2 -14 3 -2 2 25 -1 50 -1 50 -33 49 -29 -2 -32 1 -36 30 -2 17 -4 -5 -4
-49z"/>
<path d="M13993 5685 c0 -44 2 -61 4 -37 2 23 2 59 0 80 -2 20 -4 1 -4 -43z"/>
<path d="M14100 5731 c0 -24 -3 -28 -20 -24 -28 7 -50 -14 -50 -47 0 -34 16
-47 58 -47 l32 0 0 74 c0 42 -4 73 -10 73 -5 0 -10 -13 -10 -29z m-2 -67 c2
-22 -2 -33 -14 -38 -34 -13 -59 35 -32 62 21 21 43 9 46 -24z"/>
<path d="M13085 5730 c-9 -15 -8 -72 1 -102 3 -10 13 -18 22 -17 11 0 12 3 5
6 -8 2 -13 22 -13 44 0 24 5 39 13 39 8 0 9 3 1 8 -6 4 -13 14 -16 22 -4 12
-6 12 -13 0z"/>
<path d="M13321 5728 c0 -10 -7 -18 -13 -18 -10 0 -10 -2 -1 -8 6 -4 13 -25
15 -47 2 -31 8 -41 23 -43 18 -2 18 -2 3 8 -12 7 -18 23 -18 45 0 24 5 35 18
38 15 4 15 5 0 6 -9 0 -19 9 -21 19 -4 16 -5 16 -6 0z"/>
<path d="M4080 5510 l0 -220 65 0 64 0 3 101 c3 86 6 104 21 113 33 20 47 -16
47 -121 l0 -93 60 0 60 0 0 110 c0 119 -13 170 -48 189 -31 17 -73 13 -109 -9
l-33 -20 0 85 0 85 -65 0 -65 0 0 -220z"/>
<path d="M5600 5510 l0 -220 60 0 60 0 0 93 c0 105 14 141 47 121 15 -9 18
-27 21 -113 l3 -101 60 0 61 0 -4 131 c-3 129 -3 131 -31 155 -16 13 -41 24
-57 24 -33 0 -80 -19 -80 -32 0 -4 -4 -8 -10 -8 -6 0 -10 35 -10 85 l0 85 -60
0 -60 0 0 -220z"/>
<path d="M2124 5658 c13 -29 42 -92 65 -141 36 -76 41 -96 41 -157 l0 -70 65
0 65 0 0 74 c0 71 3 81 64 210 l65 136 -68 0 -68 0 -24 -79 c-13 -44 -26 -78
-29 -76 -4 2 -17 38 -30 79 l-24 76 -73 0 -73 0 24 -52z"/>
<path d="M3680 5660 l0 -50 60 0 60 0 0 -160 0 -160 65 0 65 0 0 160 0 160 60
0 60 0 0 50 0 50 -185 0 -185 0 0 -50z"/>
<path d="M12888 5660 c18 -57 28 -63 37 -20 10 43 23 46 31 5 3 -19 10 -35 15
-35 5 0 9 1 9 3 0 1 7 24 15 52 9 27 11 45 6 40 -5 -6 -14 -26 -19 -45 l-9
-35 -12 43 c-13 47 -26 48 -36 2 -9 -40 -21 -38 -29 5 -4 19 -11 35 -16 35 -4
0 -1 -22 8 -50z"/>
<path d="M13033 5660 c0 -30 2 -43 4 -27 2 15 2 39 0 55 -2 15 -4 2 -4 -28z"/>
<path d="M13502 5698 c-7 -7 -12 -24 -12 -38 0 -14 5 -31 12 -38 14 -14 58
-16 58 -2 0 5 -7 7 -15 4 -16 -6 -45 12 -45 27 0 5 16 9 35 9 22 0 35 5 35 13
0 18 -21 37 -40 37 -9 0 -21 -5 -28 -12z m48 -13 c11 -13 8 -15 -20 -15 -28 0
-31 2 -20 15 7 8 16 15 20 15 4 0 13 -7 20 -15z"/>
<path d="M13640 5709 c0 -3 7 -26 16 -52 17 -51 29 -53 39 -7 8 36 21 31 30
-10 4 -17 10 -30 14 -30 10 0 36 89 28 96 -3 3 -9 -10 -12 -30 -9 -46 -21 -46
-29 -1 -9 46 -20 44 -36 -7 l-13 -43 -9 35 c-8 30 -28 65 -28 49z"/>
<path d="M13806 5694 c-30 -30 -9 -84 33 -84 22 0 51 30 51 53 0 21 -27 47
-50 47 -10 0 -26 -7 -34 -16z m48 0 c31 -12 15 -74 -19 -74 -7 0 -35 32 -35
40 0 8 28 40 35 40 2 0 10 -3 19 -6z"/>
<path d="M13922 5655 l1 -50 6 44 c4 31 12 46 26 52 17 6 15 7 -7 6 -27 -1
-28 -3 -26 -52z"/>
<path d="M6048 5663 c-54 -14 -58 -17 -58 -44 0 -22 -5 -29 -20 -29 -17 0 -20
-7 -20 -45 0 -37 3 -45 19 -45 17 0 19 -9 23 -81 3 -77 5 -82 36 -110 25 -23
42 -29 76 -29 67 0 76 6 76 54 0 39 -2 42 -27 41 -27 0 -28 2 -31 63 l-3 62
31 0 c29 0 30 2 30 45 0 43 -1 45 -30 45 -29 0 -30 2 -30 45 0 25 -3 45 -7 44
-5 -1 -34 -8 -65 -16z"/>
<path d="M2593 5580 c-56 -25 -83 -70 -83 -138 0 -63 18 -102 62 -134 28 -19
45 -23 108 -23 84 0 127 21 155 75 22 42 19 128 -5 168 -25 41 -89 72 -150 72
-25 0 -64 -9 -87 -20z m118 -86 c7 -9 14 -33 14 -54 0 -42 -18 -70 -45 -70
-27 0 -43 26 -43 70 0 63 42 93 74 54z"/>
<path d="M3425 5575 c-23 -22 -25 -23 -25 -5 0 18 -7 20 -65 20 l-65 0 0 -150
0 -150 65 0 65 0 0 80 c0 91 17 120 70 120 30 0 30 1 30 55 0 52 -1 55 -25 55
-14 0 -37 -11 -50 -25z"/>
<path d="M4535 5586 c-86 -39 -117 -134 -74 -222 55 -114 254 -113 310 2 37
77 17 155 -54 208 -34 25 -138 33 -182 12z m115 -95 c15 -29 12 -87 -6 -105
-34 -35 -74 -6 -74 54 0 61 55 96 80 51z"/>
<path d="M5285 5590 c-27 -11 -61 -49 -74 -83 -25 -65 -7 -161 37 -200 29 -26
93 -33 131 -14 29 14 31 14 31 -3 0 -26 -47 -60 -82 -60 -16 0 -44 7 -63 14
l-35 15 0 -53 c0 -52 1 -54 31 -60 85 -17 170 -1 220 41 52 44 59 75 59 248
l0 155 -65 0 c-39 0 -65 -4 -65 -11 0 -5 -10 -3 -22 5 -24 17 -71 20 -103 6z
m123 -110 c22 -44 -1 -110 -39 -110 -23 0 -39 29 -39 74 0 63 51 87 78 36z"/>
<path d="M6276 5585 c-42 -22 -55 -44 -56 -91 0 -46 22 -73 83 -98 69 -28 33
-60 -40 -34 l-43 16 0 -43 c0 -49 10 -55 93 -55 93 0 147 41 147 113 0 44 -30
78 -82 93 -17 5 -33 15 -36 22 -7 21 28 26 64 9 l34 -17 0 44 c0 37 -4 45 -22
50 -41 11 -113 6 -142 -9z"/>
<path d="M2900 5464 c0 -125 0 -126 29 -155 34 -33 83 -39 131 -14 17 9 30 11
30 5 0 -6 27 -10 65 -10 l65 0 0 150 0 150 -65 0 -64 0 -3 -101 c-2 -82 -6
-104 -20 -112 -12 -8 -21 -7 -32 2 -13 11 -16 34 -16 112 l0 99 -60 0 -60 0 0
-126z"/>
<path d="M4830 5493 c0 -117 12 -165 47 -193 32 -25 90 -26 123 -3 17 12 25
13 28 5 2 -8 27 -12 68 -12 l64 0 0 150 0 150 -65 0 -64 0 -3 -101 c-2 -82 -6
-104 -20 -112 -12 -8 -21 -7 -32 2 -13 11 -16 34 -16 112 l0 99 -65 0 -65 0 0
-97z"/>
<path d="M2670 4930 c0 -27 -3 -30 -24 -24 -25 6 -56 -17 -56 -42 0 -35 20
-54 55 -51 l35 2 0 73 c0 39 -2 72 -5 72 -3 0 -5 -14 -5 -30z m-6 -52 c13 -21
-2 -51 -27 -56 -23 -5 -40 33 -27 59 13 23 38 22 54 -3z"/>
<path d="M3350 4930 c0 -27 -3 -30 -24 -24 -28 7 -56 -18 -56 -50 0 -31 20
-46 58 -43 l32 2 0 73 c0 39 -2 72 -5 72 -3 0 -5 -14 -5 -30z m-10 -45 c16
-19 -1 -65 -24 -65 -26 0 -40 28 -28 55 13 28 34 32 52 10z"/>
<path d="M3630 4885 c0 -43 4 -75 10 -75 6 0 10 32 10 75 0 43 -4 75 -10 75
-6 0 -10 -32 -10 -75z"/>
<path d="M2121 4878 c1 -47 4 -63 8 -44 5 23 14 32 39 38 55 15 39 78 -20 78
l-28 0 1 -72z m59 47 c18 -21 5 -45 -25 -45 -20 0 -25 5 -25 23 0 39 26 50 50
22z"/>
<path d="M3064 4938 c-5 -8 -2 -9 11 -5 17 7 45 -8 45 -24 0 -5 -16 -23 -35
-40 -48 -44 -46 -59 8 -57 36 1 38 2 10 5 -41 5 -41 17 -3 50 32 26 38 51 18
71 -15 15 -45 15 -54 0z"/>
<path d="M3472 4898 c-2 -46 -6 -60 -24 -72 -17 -12 -18 -16 -6 -16 28 0 39
26 35 87 l-3 58 -2 -57z"/>
<path d="M3840 4940 c-11 -7 -7 -9 15 -7 43 3 45 -30 5 -68 -43 -41 -39 -55
13 -53 l42 1 -37 4 c-44 5 -48 16 -13 39 36 24 48 49 35 74 -11 21 -36 26 -60
10z"/>
<path d="M3950 4935 c-17 -21 -18 -89 -1 -109 33 -40 71 -7 71 61 0 58 -40 84
-70 48z m50 -14 c14 -27 13 -64 -4 -86 -20 -28 -46 -3 -46 44 0 55 30 79 50
42z"/>
<path d="M4054 4938 c-5 -8 -2 -9 11 -5 17 7 45 -8 45 -24 0 -5 -16 -24 -35
-43 -19 -20 -35 -40 -35 -46 0 -6 20 -9 48 -8 43 1 44 2 10 5 -46 5 -48 16 -8
50 32 26 38 51 18 71 -15 15 -45 15 -54 0z"/>
<path d="M4183 4938 c-28 -14 -30 -28 -4 -21 18 5 20 -1 24 -53 3 -58 3 -58 5
14 1 39 1 72 0 71 -2 0 -13 -5 -25 -11z"/>
<path d="M2429 4925 c-2 -11 -2 -40 1 -65 4 -34 10 -46 24 -48 18 -4 19 -3 3
13 -22 22 -22 61 1 74 15 9 15 10 0 11 -9 0 -18 8 -20 18 -3 15 -4 14 -9 -3z"/>
<path d="M2231 4896 c-17 -20 -10 -67 11 -79 27 -18 68 7 68 41 0 15 -5 33
-12 40 -16 16 -53 15 -67 -2z m57 -8 c17 -17 15 -43 -4 -59 -31 -26 -70 25
-44 56 15 18 32 19 48 3z"/>
<path d="M2347 4903 c-15 -14 -6 -40 19 -51 28 -13 23 -37 -7 -29 -11 3 -19 1
-19 -4 0 -15 37 -10 51 7 11 14 10 18 -5 30 -10 7 -23 15 -29 17 -6 2 -7 9 -3
16 5 7 14 10 22 7 8 -3 14 -1 14 4 0 11 -33 14 -43 3z"/>
<path d="M2502 4898 c-7 -7 -12 -24 -12 -38 0 -14 5 -31 12 -38 14 -14 58 -16
58 -2 0 5 -7 7 -15 4 -16 -6 -45 12 -45 27 0 5 16 9 35 9 22 0 35 5 35 13 0
18 -21 37 -40 37 -9 0 -21 -5 -28 -12z m48 -13 c11 -13 8 -15 -20 -15 -28 0
-31 2 -20 15 7 8 16 15 20 15 4 0 13 -7 20 -15z"/>
<path d="M2781 4896 c-17 -20 -10 -67 11 -79 27 -18 68 7 68 41 0 15 -5 33
-12 40 -16 16 -53 15 -67 -2z m57 -8 c17 -17 15 -43 -4 -59 -31 -26 -70 25
-44 56 15 18 32 19 48 3z"/>
<path d="M2892 4855 c1 -42 2 -44 5 -13 5 42 27 68 45 50 6 -6 14 -28 18 -49
l8 -38 1 41 c1 47 -12 63 -51 61 -27 -2 -28 -4 -26 -52z"/>
<path d="M3160 4859 c0 -60 18 -65 22 -6 2 34 7 42 23 42 16 0 21 -9 26 -45
l7 -45 -2 50 -1 50 -37 2 -38 1 0 -49z"/>
<path d="M3522 4874 c-2 -47 11 -63 50 -61 27 2 28 4 26 52 -1 42 -2 44 -5 13
-2 -20 -11 -42 -19 -48 -21 -18 -42 4 -47 48 l-4 37 -1 -41z"/>
<path d="M3670 4905 c0 -3 7 -22 15 -42 20 -47 19 -80 -2 -92 -10 -6 -13 -11
-7 -11 6 0 16 6 22 13 16 19 61 137 53 137 -4 0 -14 -18 -21 -40 -15 -44 -25
-44 -35 0 -6 25 -25 53 -25 35z"/>
<path d="M2400 4385 c0 -43 4 -75 10 -75 6 0 10 32 10 75 0 43 -4 75 -10 75
-6 0 -10 -32 -10 -75z"/>
<path d="M3580 4387 l0 -74 35 -1 c56 -2 82 40 52 83 -10 12 -22 16 -40 13
-24 -5 -27 -2 -27 23 0 16 -4 29 -10 29 -6 0 -10 -31 -10 -73z m80 -27 c0 -28
-27 -45 -45 -30 -20 17 -19 47 2 59 21 11 43 -3 43 -29z"/>
<path d="M4050 4435 c0 -19 -5 -25 -23 -25 -30 0 -47 -18 -47 -51 0 -34 17
-48 58 -47 l32 1 0 74 c0 42 -4 73 -10 73 -5 0 -10 -11 -10 -25z m0 -75 c0
-16 -6 -30 -12 -33 -24 -8 -38 5 -38 33 0 16 6 30 13 33 23 8 37 -5 37 -33z"/>
<path d="M4582 4389 l-2 -76 37 1 c32 1 39 5 47 29 14 39 -3 62 -42 61 -27 -2
-31 2 -35 30 -2 17 -5 -3 -5 -45z m68 -24 c0 -32 -25 -51 -45 -35 -19 16 -19
35 0 54 20 20 45 10 45 -19z"/>
<path d="M4690 4385 c0 -43 4 -75 10 -75 6 0 10 32 10 75 0 43 -4 75 -10 75
-6 0 -10 -32 -10 -75z"/>
<path d="M5090 4450 c0 -5 5 -10 10 -10 6 0 10 5 10 10 0 6 -4 10 -10 10 -5 0
-10 -4 -10 -10z"/>
<path d="M5553 4385 c0 -44 2 -61 4 -37 2 23 2 59 0 80 -2 20 -4 1 -4 -43z"/>
<path d="M5774 4438 c-4 -13 -12 -26 -18 -30 -8 -6 -7 -8 2 -8 8 0 12 -16 12
-45 0 -25 5 -45 10 -45 6 0 10 20 10 44 0 26 5 46 13 49 10 4 10 6 0 6 -15 1
-18 31 -3 31 6 0 10 5 10 10 0 20 -29 10 -36 -12z"/>
<path d="M6480 4385 c0 -43 4 -75 10 -75 6 0 10 15 10 33 0 37 15 58 36 50 9
-3 14 -20 14 -44 0 -21 5 -39 10 -39 12 0 13 70 1 89 -5 8 -19 12 -35 9 -23
-5 -26 -2 -26 23 0 16 -4 29 -10 29 -6 0 -10 -32 -10 -75z"/>
<path d="M6770 4385 c0 -43 4 -75 10 -75 6 0 10 18 10 39 0 68 44 61 53 -9 3
-23 4 -18 3 15 -1 48 -2 50 -28 50 -24 -1 -28 3 -28 27 0 15 -4 28 -10 28 -6
0 -10 -32 -10 -75z"/>
<path d="M8650 4431 c0 -24 -3 -28 -24 -24 -34 7 -61 -34 -47 -71 9 -22 16
-26 51 -24 l40 1 0 74 c0 42 -4 73 -10 73 -5 0 -10 -13 -10 -29z m0 -71 c0
-28 -27 -45 -45 -30 -20 17 -19 47 2 59 21 11 43 -3 43 -29z"/>
<path d="M8970 4450 c0 -5 5 -10 10 -10 6 0 10 5 10 10 0 6 -4 10 -10 10 -5 0
-10 -4 -10 -10z"/>
<path d="M9550 4450 c0 -5 5 -10 10 -10 6 0 10 5 10 10 0 6 -4 10 -10 10 -5 0
-10 -4 -10 -10z"/>
<path d="M10315 4450 c-3 -5 -1 -10 4 -10 6 0 11 5 11 10 0 6 -2 10 -4 10 -3
0 -8 -4 -11 -10z"/>
<path d="M10760 4385 c0 -43 4 -75 10 -75 6 0 10 18 10 39 0 24 5 41 14 44 21
8 36 -13 36 -50 0 -18 5 -33 10 -33 13 0 13 41 0 75 -8 22 -15 26 -35 23 -22
-5 -25 -2 -25 23 0 16 -4 29 -10 29 -6 0 -10 -32 -10 -75z"/>
<path d="M10870 4450 c0 -5 5 -10 10 -10 6 0 10 5 10 10 0 6 -4 10 -10 10 -5
0 -10 -4 -10 -10z"/>
<path d="M11620 4450 c0 -5 5 -10 10 -10 6 0 10 5 10 10 0 6 -4 10 -10 10 -5
0 -10 -4 -10 -10z"/>
<path d="M2123 4380 c11 -38 25 -70 31 -70 6 0 18 24 27 53 l15 52 14 -52 c8
-29 19 -53 25 -53 10 0 45 101 45 130 0 18 -20 11 -21 -7 0 -10 -6 -36 -13
-58 l-13 -40 -13 58 c-7 32 -18 56 -24 54 -6 -2 -18 -28 -26 -58 l-16 -54 -15
54 c-8 30 -20 56 -26 58 -7 3 -3 -25 10 -67z"/>
<path d="M6190 4400 c0 -27 5 -50 10 -50 6 0 10 23 10 50 0 28 -4 50 -10 50
-5 0 -10 -22 -10 -50z"/>
<path d="M6303 4380 c11 -38 25 -70 31 -70 6 0 18 24 27 53 l15 52 14 -52 c8
-29 19 -53 25 -53 10 0 45 101 45 130 0 18 -20 11 -21 -7 0 -10 -6 -36 -13
-58 l-13 -40 -13 58 c-7 32 -18 56 -24 54 -6 -2 -18 -28 -26 -58 l-16 -54 -15
54 c-8 30 -20 56 -26 58 -7 3 -3 -25 10 -67z"/>
<path d="M7442 4430 c0 -14 2 -19 5 -12 2 6 2 18 0 25 -3 6 -5 1 -5 -13z"/>
<path d="M2995 4430 c-9 -15 -9 -71 1 -102 6 -19 44 -25 44 -8 0 6 -6 9 -12 8
-21 -5 -22 54 -2 69 16 11 16 13 2 13 -9 0 -18 8 -20 18 -3 14 -5 15 -13 2z"/>
<path d="M5700 4426 c0 -8 -6 -17 -12 -19 -10 -4 -10 -6 0 -6 7 -1 12 -16 12
-41 0 -39 21 -64 38 -45 4 4 1 10 -5 12 -7 3 -13 20 -13 38 0 18 6 36 13 38
10 4 10 6 0 6 -7 1 -13 8 -13 16 0 8 -4 15 -10 15 -5 0 -10 -6 -10 -14z"/>
<path d="M6711 4428 c0 -10 -6 -18 -13 -18 -9 0 -9 -3 0 -12 7 -7 12 -29 12
-50 0 -31 4 -38 20 -38 11 0 20 5 20 10 0 6 -6 9 -12 8 -21 -5 -22 54 -2 69
16 11 16 13 2 13 -9 0 -19 8 -21 18 -4 16 -5 16 -6 0z"/>
<path d="M9020 4426 c0 -8 -6 -17 -12 -19 -10 -4 -10 -6 0 -6 7 -1 12 -16 12
-41 0 -39 21 -64 38 -45 4 4 1 10 -5 12 -7 3 -13 20 -13 38 0 18 6 36 13 38
10 4 10 6 0 6 -7 1 -13 8 -13 16 0 8 -4 15 -10 15 -5 0 -10 -6 -10 -14z"/>
<path d="M9811 4428 c0 -10 -6 -18 -13 -18 -9 0 -9 -3 0 -12 7 -7 12 -29 12
-50 0 -31 4 -38 20 -38 11 0 20 5 20 10 0 6 -6 9 -12 8 -21 -5 -22 54 -2 69
16 11 16 13 2 13 -9 0 -19 8 -21 18 -4 16 -5 16 -6 0z"/>
<path d="M10015 4430 c-9 -15 -9 -71 1 -102 6 -19 44 -25 44 -8 0 6 -6 9 -12
8 -21 -5 -22 54 -2 69 16 11 16 13 2 13 -9 0 -18 8 -20 18 -3 14 -5 15 -13 2z"/>
<path d="M10255 4430 c-9 -15 -9 -71 1 -102 6 -19 44 -25 44 -8 0 6 -6 9 -12
8 -21 -5 -22 54 -2 69 16 11 16 13 2 13 -9 0 -18 8 -20 18 -3 14 -5 15 -13 2z"/>
<path d="M10700 4426 c0 -8 -6 -17 -12 -19 -10 -4 -10 -6 0 -6 7 -1 12 -16 12
-41 0 -39 21 -64 38 -45 4 4 1 10 -5 12 -7 3 -13 20 -13 38 0 18 6 36 13 38
10 4 10 6 0 6 -7 1 -13 8 -13 16 0 8 -4 15 -10 15 -5 0 -10 -6 -10 -14z"/>
<path d="M2302 4398 c-7 -7 -12 -24 -12 -38 0 -14 5 -31 12 -38 15 -15 68 -16
68 -1 0 6 -7 9 -15 5 -21 -8 -45 3 -45 20 0 9 12 14 35 14 38 0 40 2 25 31
-12 21 -50 25 -68 7z m58 -19 c0 -5 -11 -9 -25 -9 -26 0 -34 15 -12 23 16 5
37 -3 37 -14z"/>
<path d="M2457 4392 c-21 -23 -22 -46 -1 -66 18 -18 64 -22 64 -5 0 6 -6 9
-12 6 -21 -7 -48 12 -48 33 0 21 27 40 48 33 6 -3 12 0 12 6 0 18 -46 12 -63
-7z"/>
<path d="M2544 4385 c-15 -23 -15 -27 0 -50 29 -44 86 -28 86 25 0 53 -57 69
-86 25z m60 -1 c20 -19 20 -29 0 -48 -19 -20 -54 -5 -54 24 0 15 21 37 37 40
1 0 9 -7 17 -16z"/>
<path d="M2660 4358 c0 -26 5 -48 10 -48 6 0 10 18 10 40 0 33 3 40 20 40 17
0 20 -7 20 -40 0 -22 5 -40 10 -40 6 0 10 18 10 39 0 24 5 41 14 44 20 8 26
-2 26 -45 0 -21 5 -38 11 -38 6 0 9 19 7 48 l-3 47 -67 1 -68 1 0 -49z"/>
<path d="M2835 4386 c-16 -23 -11 -54 9 -68 17 -12 54 -9 62 4 5 7 1 9 -13 6
-24 -6 -56 9 -48 23 4 5 19 9 36 9 30 0 38 17 17 38 -19 19 -46 14 -63 -12z
m53 -4 c2 -7 -7 -12 -23 -12 -24 0 -26 2 -15 15 14 17 31 16 38 -3z"/>
<path d="M3061 4396 c-16 -19 -10 -66 10 -79 44 -28 95 25 69 72 -13 25 -61
29 -79 7z m57 -8 c27 -27 2 -75 -32 -62 -19 7 -22 60 -3 67 19 8 22 8 35 -5z"/>
<path d="M3236 4394 c-32 -31 -8 -84 38 -84 29 0 46 18 46 50 0 14 -5 31 -12
38 -17 17 -54 15 -72 -4z m64 -34 c0 -31 -16 -42 -42 -28 -23 11 -23 44 -1 56
25 15 43 3 43 -28z"/>
<path d="M3340 4379 c0 -50 16 -69 55 -67 35 1 35 1 35 50 0 26 -4 48 -10 48
-5 0 -10 -18 -10 -39 0 -24 -5 -41 -14 -44 -21 -8 -36 13 -36 50 0 18 -4 33
-10 33 -5 0 -10 -14 -10 -31z"/>
<path d="M3460 4359 c0 -27 5 -49 10 -49 6 0 10 18 10 40 0 26 6 42 17 48 13
8 11 10 -10 10 -26 0 -27 -3 -27 -49z"/>
<path d="M3700 4359 c0 -27 5 -49 10 -49 6 0 10 18 10 40 0 26 6 42 17 48 13
8 11 10 -10 10 -26 0 -27 -3 -27 -49z"/>
<path d="M3777 4404 c-14 -15 -6 -24 12 -15 14 8 22 7 31 -4 10 -12 9 -15 -7
-15 -30 0 -55 -23 -47 -43 4 -13 16 -17 41 -15 34 2 34 2 31 48 -3 40 -6 45
-28 48 -14 2 -29 0 -33 -4z m40 -71 c-15 -15 -37 -11 -37 7 0 10 31 19 43 12
5 -2 2 -11 -6 -19z"/>
<path d="M3870 4358 c0 -26 5 -48 10 -48 6 0 10 15 10 33 0 37 15 58 36 50 9
-3 14 -20 14 -44 0 -21 5 -39 10 -39 15 0 12 76 -3 88 -7 6 -27 10 -45 10 -32
-1 -32 -2 -32 -50z"/>
<path d="M4160 4359 c0 -27 5 -49 10 -49 6 0 10 18 10 39 0 68 44 61 53 -9 3
-23 4 -18 3 15 l-1 50 -37 2 -38 1 0 -49z"/>
<path d="M4275 4386 c-16 -23 -11 -54 9 -68 17 -12 54 -9 62 4 5 7 1 9 -13 6
-24 -6 -56 9 -48 23 4 5 19 9 36 9 30 0 38 17 17 38 -19 19 -46 14 -63 -12z
m53 -4 c2 -7 -7 -12 -23 -12 -24 0 -26 2 -15 15 14 17 31 16 38 -3z"/>
<path d="M4363 4403 c3 -5 10 -27 16 -50 7 -24 15 -43 20 -43 5 0 15 17 23 38
l15 37 8 -37 c8 -44 21 -49 35 -13 18 47 22 75 12 75 -5 0 -13 -17 -17 -37
l-8 -38 -11 34 c-17 48 -32 49 -41 4 l-8 -38 -15 38 c-8 20 -19 37 -24 37 -5
0 -7 -3 -5 -7z"/>
<path d="M4744 4385 c-15 -23 -15 -27 0 -50 29 -44 86 -28 86 25 0 53 -57 69
-86 25z m60 -1 c20 -19 20 -29 0 -48 -19 -20 -54 -5 -54 24 0 15 21 37 37 40
1 0 9 -7 17 -16z"/>
<path d="M4865 4394 c-33 -33 -6 -90 38 -82 31 6 34 -3 11 -27 -9 -9 -24 -13
-35 -10 -11 4 -19 2 -19 -4 0 -6 13 -11 29 -11 41 0 61 32 61 96 l0 51 -35 1
c-19 1 -41 -5 -50 -14z m53 -6 c18 -18 15 -46 -6 -57 -33 -18 -58 29 -30 57 7
7 15 12 18 12 3 0 11 -5 18 -12z"/>
<path d="M4982 4398 c-17 -17 -15 -63 3 -78 8 -7 24 -10 35 -7 15 4 20 0 20
-13 0 -20 -23 -32 -45 -24 -8 4 -15 1 -15 -5 0 -15 53 -14 68 1 7 7 12 39 12
75 l0 63 -33 0 c-18 0 -38 -5 -45 -12z m58 -38 c0 -16 -6 -30 -12 -33 -24 -8
-38 5 -38 33 0 16 6 30 13 33 23 8 37 -5 37 -33z"/>
<path d="M5090 4360 c0 -27 5 -50 10 -50 6 0 10 23 10 50 0 28 -4 50 -10 50
-5 0 -10 -22 -10 -50z"/>
<path d="M5140 4358 c0 -26 5 -48 10 -48 6 0 10 15 10 33 0 37 15 58 36 50 9
-3 14 -20 14 -44 0 -21 5 -39 10 -39 15 0 12 76 -3 88 -7 6 -27 10 -45 10 -32
-1 -32 -2 -32 -50z"/>
<path d="M5262 4398 c-17 -17 -15 -63 3 -78 8 -7 24 -10 35 -7 15 4 20 0 20
-13 0 -20 -23 -32 -45 -24 -8 4 -15 1 -15 -5 0 -15 53 -14 68 1 7 7 12 39 12
75 l0 63 -33 0 c-18 0 -38 -5 -45 -12z m58 -38 c0 -16 -6 -30 -12 -33 -24 -8
-38 5 -38 33 0 16 6 30 13 33 23 8 37 -5 37 -33z"/>
<path d="M5430 4333 c0 -42 4 -73 10 -73 6 0 10 13 10 29 0 24 3 28 20 24 28
-7 50 14 50 47 0 35 -17 49 -58 48 l-32 -1 0 -74z m70 27 c0 -16 -6 -30 -12
-33 -24 -8 -38 5 -38 33 0 16 6 30 13 33 23 8 37 -5 37 -33z"/>
<path d="M5605 4399 c-4 -6 -1 -10 6 -8 47 6 54 -16 8 -25 -25 -5 -30 -10 -27
-28 2 -19 10 -23 41 -25 36 -1 37 0 37 36 0 20 -5 42 -12 49 -15 15 -45 16
-53 1z m34 -69 c-14 -9 -29 -4 -29 10 0 12 34 18 39 7 2 -5 -3 -13 -10 -17z"/>
<path d="M5831 4396 c-16 -19 -10 -66 10 -79 44 -28 95 25 69 72 -13 25 -61
29 -79 7z m57 -8 c27 -27 2 -75 -32 -62 -19 7 -22 60 -3 67 19 8 22 8 35 -5z"/>
<path d="M5940 4358 c0 -26 5 -48 10 -48 6 0 10 15 10 33 0 36 8 51 30 59 8 3
0 6 -17 5 -33 0 -33 -1 -33 -49z"/>
<path d="M6010 4358 c0 -26 5 -48 10 -48 6 0 10 15 10 34 0 69 49 66 51 -3 l1
-36 7 35 c4 20 11 41 15 48 13 22 36 -6 36 -44 0 -19 5 -34 10 -34 13 0 13 56
0 80 -8 14 -22 18 -75 17 l-65 0 0 -49z"/>
<path d="M6602 4398 c-7 -7 -12 -24 -12 -38 0 -14 5 -31 12 -38 15 -15 68 -16
68 -1 0 6 -7 9 -15 5 -21 -8 -45 3 -45 20 0 9 12 14 35 14 38 0 40 2 25 31
-12 21 -50 25 -68 7z m58 -19 c0 -5 -11 -9 -25 -9 -26 0 -34 15 -12 23 16 5
37 -3 37 -14z"/>
<path d="M6892 4398 c-15 -15 -16 -60 0 -76 15 -15 55 -16 64 0 5 8 2 9 -9 5
-22 -8 -47 2 -47 19 0 9 12 14 35 14 31 0 34 2 26 23 -9 25 -50 34 -69 15z
m39 -26 c-28 -4 -40 6 -21 18 9 6 20 4 29 -3 12 -10 11 -13 -8 -15z"/>
<path d="M6991 4355 l1 -50 8 39 c4 22 16 45 26 53 17 12 16 13 -9 11 -26 -2
-27 -5 -26 -53z"/>
<path d="M7103 4396 c3 -8 11 -33 18 -56 12 -38 11 -44 -6 -56 -10 -8 -16 -17
-12 -20 14 -15 36 8 55 58 11 29 23 61 27 71 4 9 3 17 -3 17 -5 0 -16 -17 -24
-37 l-14 -38 -14 38 c-8 20 -18 37 -23 37 -5 0 -7 -6 -4 -14z"/>
<path d="M7216 4394 c-32 -31 -8 -84 38 -84 29 0 46 18 46 50 0 14 -5 31 -12
38 -17 17 -54 15 -72 -4z m64 -34 c0 -31 -16 -42 -42 -28 -23 11 -23 44 -1 56
25 15 43 3 43 -28z"/>
<path d="M7320 4379 c0 -50 16 -69 55 -67 35 1 35 1 35 50 0 26 -4 48 -10 48
-5 0 -10 -18 -10 -39 0 -24 -5 -41 -14 -44 -21 -8 -36 13 -36 50 0 18 -4 33
-10 33 -5 0 -10 -14 -10 -31z"/>
<path d="M7480 4358 c0 -26 5 -48 10 -48 6 0 10 15 10 33 0 36 8 51 30 59 8 3
0 6 -17 5 -33 0 -33 -1 -33 -49z"/>
<path d="M7562 4398 c-15 -15 -16 -60 0 -76 15 -15 55 -16 64 0 5 8 2 9 -9 5
-22 -8 -47 2 -47 19 0 9 12 14 35 14 31 0 34 2 26 23 -9 25 -50 34 -69 15z
m39 -26 c-28 -4 -40 6 -21 18 9 6 20 4 29 -3 12 -10 11 -13 -8 -15z"/>
<path d="M7725 4399 c-4 -6 -1 -10 6 -8 47 6 54 -16 8 -25 -25 -5 -30 -10 -27
-28 2 -19 10 -23 41 -25 36 -1 37 0 37 36 0 20 -5 42 -12 49 -15 15 -45 16
-53 1z m34 -69 c-14 -9 -29 -4 -29 10 0 12 34 18 39 7 2 -5 -3 -13 -10 -17z"/>
<path d="M7871 4396 c-9 -11 -8 -18 4 -30 9 -9 21 -16 27 -16 5 0 8 -6 5 -12
-2 -7 -14 -12 -27 -10 -14 2 -20 0 -16 -7 11 -17 56 -13 63 6 4 11 -3 24 -21
38 -28 22 -23 41 8 29 9 -3 16 -1 16 5 0 16 -45 14 -59 -3z"/>
<path d="M7962 4398 c-7 -7 -12 -24 -12 -38 0 -14 5 -31 12 -38 15 -15 68 -16
68 -1 0 6 -7 9 -15 5 -21 -8 -45 3 -45 20 0 9 12 14 35 14 38 0 40 2 25 31
-12 21 -50 25 -68 7z m58 -19 c0 -5 -11 -9 -25 -9 -26 0 -34 15 -12 23 16 5
37 -3 37 -14z"/>
<path d="M8067 4404 c-15 -15 -6 -24 12 -14 14 7 22 7 26 -1 8 -12 9 -11 -28
-27 -42 -18 -32 -47 16 -49 l38 -1 -3 46 c-3 42 -6 47 -28 50 -14 2 -29 0 -33
-4z m32 -74 c-14 -9 -29 -4 -29 10 0 12 34 18 39 7 2 -5 -3 -13 -10 -17z"/>
<path d="M8161 4396 c-9 -11 -8 -18 4 -30 9 -9 21 -16 27 -16 5 0 8 -6 5 -12
-2 -7 -14 -12 -27 -10 -14 2 -20 0 -16 -7 11 -17 56 -13 63 6 4 11 -3 24 -21
38 -28 22 -23 41 8 29 9 -3 16 -1 16 5 0 16 -45 14 -59 -3z"/>
<path d="M8251 4396 c-16 -19 -10 -66 10 -79 44 -28 95 25 69 72 -13 25 -61
29 -79 7z m57 -8 c27 -27 2 -75 -32 -62 -19 7 -22 60 -3 67 19 8 22 8 35 -5z"/>
<path d="M8360 4358 c0 -26 5 -48 10 -48 6 0 10 15 10 33 0 37 15 58 36 50 9
-3 14 -20 14 -44 0 -21 5 -39 10 -39 15 0 12 76 -3 88 -7 6 -27 10 -45 10 -32
-1 -32 -2 -32 -50z"/>
<path d="M8482 4398 c-7 -7 -12 -24 -12 -38 0 -14 5 -31 12 -38 15 -15 68 -16
68 -1 0 6 -7 9 -15 5 -21 -8 -45 3 -45 20 0 9 12 14 35 14 38 0 40 2 25 31
-12 21 -50 25 -68 7z m58 -19 c0 -5 -11 -9 -25 -9 -26 0 -34 15 -12 23 16 5
37 -3 37 -14z"/>
<path d="M8740 4407 c0 -15 34 -97 40 -97 4 0 14 15 20 33 l13 32 10 -32 c12
-39 24 -42 36 -10 16 43 21 77 12 77 -5 0 -13 -17 -18 -37 l-10 -38 -9 34
c-13 45 -30 50 -39 12 -8 -39 -21 -40 -28 -1 -4 17 -11 30 -17 30 -5 0 -10 -1
-10 -3z"/>
<path d="M8900 4359 c0 -27 5 -49 10 -49 6 0 10 18 10 40 0 26 6 42 17 48 13
8 11 10 -10 10 -26 0 -27 -3 -27 -49z"/>
<path d="M8970 4360 c0 -27 5 -50 10 -50 6 0 10 23 10 50 0 28 -4 50 -10 50
-5 0 -10 -22 -10 -50z"/>
<path d="M9092 4398 c-15 -15 -16 -60 0 -76 15 -15 55 -16 64 0 5 8 2 9 -9 5
-22 -8 -47 2 -47 19 0 9 12 14 35 14 31 0 34 2 26 23 -9 25 -50 34 -69 15z
m39 -26 c-28 -4 -40 6 -21 18 9 6 20 4 29 -3 12 -10 11 -13 -8 -15z"/>
<path d="M9190 4359 c0 -27 5 -49 10 -49 6 0 10 18 10 40 0 26 6 42 17 48 13
8 11 10 -10 10 -26 0 -27 -3 -27 -49z"/>
<path d="M9322 4398 c-7 -7 -12 -24 -12 -38 0 -32 17 -50 45 -50 25 0 55 29
55 53 0 38 -61 62 -88 35z m68 -38 c0 -21 -27 -40 -47 -33 -7 3 -13 17 -13 33
0 16 6 30 13 33 20 7 47 -12 47 -33z"/>
<path d="M9430 4359 c0 -27 5 -49 10 -49 6 0 10 18 10 40 0 26 6 42 17 48 13
8 11 10 -10 10 -26 0 -27 -3 -27 -49z"/>
<path d="M9548 4343 c-2 -48 -7 -67 -15 -65 -7 1 -13 -2 -13 -8 0 -14 23 -13
38 2 14 14 16 138 2 138 -5 0 -10 -30 -12 -67z"/>
<path d="M9600 4371 c0 -46 14 -60 58 -59 32 1 32 2 32 50 0 26 -4 48 -10 48
-5 0 -10 -15 -10 -33 0 -37 -15 -58 -36 -50 -9 3 -14 20 -14 44 0 21 -4 39
-10 39 -5 0 -10 -17 -10 -39z"/>
<path d="M9714 4395 c-7 -18 13 -45 33 -45 8 0 13 -6 10 -12 -2 -7 -14 -12
-26 -11 -11 2 -21 -2 -21 -7 0 -16 46 -11 61 6 11 14 10 18 -6 30 -10 8 -23
14 -28 14 -5 0 -7 6 -4 13 2 6 11 11 21 9 9 -2 16 2 16 8 0 16 -50 12 -56 -5z"/>
<path d="M9927 4403 c-15 -14 -6 -40 19 -51 28 -14 23 -36 -7 -27 -11 4 -19 2
-19 -4 0 -16 46 -13 59 3 9 11 8 18 -4 30 -9 9 -21 16 -27 16 -5 0 -8 6 -5 13
2 6 11 11 21 9 9 -2 16 2 16 8 0 11 -43 14 -53 3z"/>
<path d="M10087 4403 c-14 -13 -7 -25 8 -13 8 6 19 9 25 5 18 -11 11 -22 -21
-29 -25 -5 -30 -10 -27 -28 2 -19 10 -23 41 -25 36 -1 37 0 37 32 0 18 -3 40
-6 49 -6 16 -45 22 -57 9z m32 -73 c-14 -9 -29 -4 -29 10 0 12 34 18 39 7 2
-5 -3 -13 -10 -17z"/>
<path d="M10180 4359 c0 -27 5 -49 10 -49 6 0 10 18 10 40 0 26 6 42 17 48 13
8 11 10 -10 10 -26 0 -27 -3 -27 -49z"/>
<path d="M10323 4360 c0 -30 2 -43 4 -27 2 15 2 39 0 55 -2 15 -4 2 -4 -28z"/>
<path d="M10360 4358 c0 -26 5 -48 10 -48 6 0 10 15 10 33 0 37 15 58 36 50 9
-3 14 -20 14 -44 0 -21 5 -39 10 -39 15 0 12 76 -3 88 -7 6 -27 10 -45 10 -32
-1 -32 -2 -32 -50z"/>
<path d="M10482 4398 c-17 -17 -15 -63 3 -78 8 -7 24 -10 35 -7 15 4 20 0 20
-13 0 -20 -23 -32 -45 -24 -8 4 -15 1 -15 -5 0 -15 53 -14 68 1 7 7 12 39 12
75 l0 63 -33 0 c-18 0 -38 -5 -45 -12z m58 -38 c0 -16 -6 -30 -12 -33 -24 -8
-38 5 -38 33 0 16 6 30 13 33 23 8 37 -5 37 -33z"/>
<path d="M10870 4360 c0 -27 5 -50 10 -50 6 0 10 23 10 50 0 28 -4 50 -10 50
-5 0 -10 -22 -10 -50z"/>
<path d="M10921 4396 c-9 -11 -8 -18 4 -30 9 -9 21 -16 27 -16 5 0 8 -6 5 -12
-2 -7 -14 -12 -27 -10 -14 2 -20 0 -16 -7 11 -17 56 -13 63 6 4 11 -3 24 -21
38 -28 22 -23 41 8 29 9 -3 16 -1 16 5 0 16 -45 14 -59 -3z"/>
<path d="M11061 4396 c-9 -11 -8 -18 4 -30 9 -9 21 -16 27 -16 5 0 8 -6 5 -12
-2 -7 -14 -12 -27 -10 -14 2 -20 0 -16 -7 11 -17 56 -13 63 6 4 11 -3 24 -21
38 -28 22 -23 41 8 29 9 -3 16 -1 16 5 0 16 -45 14 -59 -3z"/>
<path d="M11151 4330 c1 -48 4 -64 8 -45 5 25 11 30 36 30 23 0 32 6 39 28 14
40 -2 62 -48 62 l-36 1 1 -76z m69 35 c0 -32 -25 -51 -45 -35 -19 16 -19 35 0
54 20 20 45 10 45 -19z"/>
<path d="M11275 4399 c-4 -6 -1 -10 6 -8 47 6 54 -16 8 -25 -25 -5 -30 -10
-27 -28 2 -19 10 -23 41 -25 36 -1 37 0 37 36 0 20 -5 42 -12 49 -15 15 -45
16 -53 1z m34 -69 c-14 -9 -29 -4 -29 10 0 12 34 18 39 7 2 -5 -3 -13 -10 -17z"/>
<path d="M11376 4394 c-19 -18 -21 -55 -4 -72 15 -15 55 -16 64 0 5 8 2 9 -9
5 -26 -10 -47 3 -47 28 0 29 22 47 45 38 13 -4 16 -3 11 5 -10 17 -42 15 -60
-4z"/>
<path d="M11466 4394 c-32 -32 -11 -84 34 -84 17 0 30 5 30 11 0 6 -7 8 -16 5
-17 -6 -44 9 -44 25 0 5 16 9 35 9 36 0 46 15 23 38 -17 17 -44 15 -62 -4z
m54 -15 c0 -5 -12 -9 -26 -9 -22 0 -24 2 -14 14 12 15 40 11 40 -5z"/>
<path d="M11620 4360 c0 -27 5 -50 10 -50 6 0 10 23 10 50 0 28 -4 50 -10 50
-5 0 -10 -22 -10 -50z"/>
<path d="M11664 4395 c-7 -18 13 -45 33 -45 8 0 13 -6 10 -12 -2 -7 -14 -12
-26 -11 -11 2 -21 -2 -21 -7 0 -16 46 -11 61 6 11 14 10 18 -6 30 -10 8 -23
14 -28 14 -5 0 -7 6 -4 13 2 6 11 11 21 9 9 -2 16 2 16 8 0 16 -50 12 -56 -5z"/>
<path d="M6190 4320 c0 -5 5 -10 10 -10 6 0 10 5 10 10 0 6 -4 10 -10 10 -5 0
-10 -4 -10 -10z"/>
<path d="M10588 4305 c-3 -14 -1 -25 3 -25 5 0 9 4 9 9 0 5 3 16 6 25 3 9 2
16 -4 16 -5 0 -12 -11 -14 -25z"/>
<path d="M2180 4135 c0 -19 -5 -25 -23 -25 -30 0 -47 -18 -47 -51 0 -34 17
-48 58 -47 l32 1 0 74 c0 42 -4 73 -10 73 -5 0 -10 -11 -10 -25z m0 -75 c0
-16 -6 -30 -12 -33 -24 -8 -38 5 -38 33 0 16 6 30 13 33 23 8 37 -5 37 -33z"/>
<path d="M2420 4150 c0 -5 5 -10 10 -10 6 0 10 5 10 10 0 6 -4 10 -10 10 -5 0
-10 -4 -10 -10z"/>
<path d="M2870 4135 c0 -19 -5 -25 -23 -25 -30 0 -47 -18 -47 -51 0 -34 17
-48 58 -47 l32 1 0 74 c0 42 -4 73 -10 73 -5 0 -10 -11 -10 -25z m0 -75 c0
-16 -6 -30 -12 -33 -24 -8 -38 5 -38 33 0 16 6 30 13 33 23 8 37 -5 37 -33z"/>
<path d="M2997 4153 c-4 -3 -7 -15 -7 -25 0 -10 -5 -18 -11 -18 -8 0 -8 -4 -1
-13 6 -7 12 -30 15 -52 l4 -40 1 42 c1 28 8 45 20 52 16 10 16 10 0 11 -22 0
-24 18 -3 26 8 4 15 10 15 15 0 10 -24 12 -33 2z"/>
<path d="M3990 4085 c0 -43 4 -75 10 -75 6 0 10 18 10 39 0 24 5 41 14 44 21
8 36 -13 36 -50 0 -18 5 -33 10 -33 13 0 13 41 0 75 -8 22 -15 26 -35 23 -22
-5 -25 -2 -25 23 0 16 -4 29 -10 29 -6 0 -10 -32 -10 -75z"/>
<path d="M4950 4085 c0 -43 4 -75 10 -75 6 0 10 15 10 33 0 37 15 58 36 50 9
-3 14 -20 14 -44 0 -21 5 -39 10 -39 12 0 13 70 1 89 -5 8 -19 12 -35 9 -23
-5 -26 -2 -26 23 0 16 -4 29 -10 29 -6 0 -10 -32 -10 -75z"/>
<path d="M5423 4085 c-1 -61 1 -71 7 -42 13 71 50 76 50 6 0 -21 5 -39 11 -39
6 0 9 19 7 48 -3 46 -4 47 -35 46 -29 -2 -32 1 -36 30 -2 17 -4 -5 -4 -49z"/>
<path d="M5780 4150 c0 -5 5 -10 10 -10 6 0 10 5 10 10 0 6 -4 10 -10 10 -5 0
-10 -4 -10 -10z"/>
<path d="M5890 4135 c0 -19 -5 -25 -23 -25 -30 0 -47 -18 -47 -51 0 -34 17
-48 58 -47 l32 1 0 74 c0 42 -4 73 -10 73 -5 0 -10 -11 -10 -25z m0 -75 c0
-16 -6 -30 -12 -33 -24 -8 -38 5 -38 33 0 16 6 30 13 33 23 8 37 -5 37 -33z"/>
<path d="M6620 4129 c0 -19 -4 -28 -11 -24 -20 13 -59 -5 -65 -29 -10 -42 11
-66 56 -64 l40 1 0 74 c0 42 -4 73 -10 73 -5 0 -10 -14 -10 -31z m-12 -41 c18
-18 15 -46 -6 -57 -33 -18 -58 29 -30 57 7 7 15 12 18 12 3 0 11 -5 18 -12z"/>
<path d="M7060 4150 c0 -5 5 -10 10 -10 6 0 10 5 10 10 0 6 -4 10 -10 10 -5 0
-10 -4 -10 -10z"/>
<path d="M7500 4150 c0 -5 5 -10 10 -10 6 0 10 5 10 10 0 6 -4 10 -10 10 -5 0
-10 -4 -10 -10z"/>
<path d="M7610 4085 c0 -43 4 -75 10 -75 6 0 10 15 10 33 0 37 15 58 36 50 9
-3 14 -20 14 -44 0 -21 5 -39 10 -39 12 0 13 70 1 89 -5 8 -19 12 -35 9 -23
-5 -26 -2 -26 23 0 16 -4 29 -10 29 -6 0 -10 -32 -10 -75z"/>
<path d="M7850 4085 c0 -43 4 -75 10 -75 6 0 10 18 10 39 0 24 5 41 14 44 21
8 36 -13 36 -50 0 -18 5 -33 10 -33 13 0 13 41 0 75 -8 22 -15 26 -35 23 -22
-5 -25 -2 -25 23 0 16 -4 29 -10 29 -6 0 -10 -32 -10 -75z"/>
<path d="M8450 4085 c0 -43 4 -75 10 -75 6 0 10 32 10 75 0 43 -4 75 -10 75
-6 0 -10 -32 -10 -75z"/>
<path d="M8570 4131 c0 -24 -3 -28 -20 -24 -28 7 -50 -14 -50 -47 0 -35 17
-49 58 -48 l32 1 0 74 c0 42 -4 73 -10 73 -5 0 -10 -13 -10 -29z m0 -71 c0
-16 -6 -30 -12 -33 -24 -8 -38 5 -38 33 0 16 6 30 13 33 23 8 37 -5 37 -33z"/>
<path d="M9220 4085 c0 -43 4 -75 10 -75 6 0 10 32 10 75 0 43 -4 75 -10 75
-6 0 -10 -32 -10 -75z"/>
<path d="M9454 4138 c-4 -13 -12 -26 -18 -30 -8 -6 -7 -8 2 -8 8 0 12 -16 12
-45 0 -25 5 -45 10 -45 6 0 10 20 10 44 0 26 5 46 13 49 10 4 10 6 0 6 -15 1
-18 31 -3 31 6 0 10 5 10 10 0 20 -29 10 -36 -12z"/>
<path d="M9920 4150 c0 -5 5 -10 10 -10 6 0 10 5 10 10 0 6 -4 10 -10 10 -5 0
-10 -4 -10 -10z"/>
<path d="M10112 4089 l-2 -76 37 1 c32 1 39 5 47 29 14 39 -3 62 -42 61 -27
-2 -31 2 -35 30 -2 17 -5 -3 -5 -45z m68 -24 c0 -32 -25 -51 -45 -35 -19 16
-19 35 0 54 20 20 45 10 45 -19z"/>
<path d="M10340 4150 c0 -5 5 -10 10 -10 6 0 10 5 10 10 0 6 -4 10 -10 10 -5
0 -10 -4 -10 -10z"/>
<path d="M10393 4085 c0 -44 2 -61 4 -37 2 23 2 59 0 80 -2 20 -4 1 -4 -43z"/>
<path d="M10700 4150 c0 -5 5 -10 10 -10 6 0 10 5 10 10 0 6 -4 10 -10 10 -5
0 -10 -4 -10 -10z"/>
<path d="M10820 4085 c0 -43 4 -75 10 -75 6 0 10 18 10 39 0 68 44 61 53 -9 3
-23 4 -18 3 15 -1 48 -2 50 -28 50 -24 -1 -28 3 -28 27 0 15 -4 28 -10 28 -6
0 -10 -32 -10 -75z"/>
<path d="M11070 4150 c0 -5 5 -10 10 -10 6 0 10 5 10 10 0 6 -4 10 -10 10 -5
0 -10 -4 -10 -10z"/>
<path d="M11410 4085 c0 -43 4 -75 10 -75 6 0 10 32 10 75 0 43 -4 75 -10 75
-6 0 -10 -32 -10 -75z"/>
<path d="M11460 4150 c0 -5 5 -10 10 -10 6 0 10 5 10 10 0 6 -4 10 -10 10 -5
0 -10 -4 -10 -10z"/>
<path d="M11600 4150 c0 -5 5 -10 10 -10 6 0 10 5 10 10 0 6 -4 10 -10 10 -5
0 -10 -4 -10 -10z"/>
<path d="M8744 4142 c-38 -25 -40 -103 -4 -122 29 -15 65 -12 83 8 23 25 22
85 -1 105 -19 18 -59 22 -78 9z m78 -37 c17 -37 -3 -75 -40 -75 -47 0 -66 36
-42 81 16 29 67 26 82 -6z"/>
<path d="M3670 4126 c0 -8 -6 -17 -12 -19 -10 -4 -10 -6 0 -6 7 -1 12 -16 12
-41 0 -39 21 -64 38 -45 4 4 1 10 -5 12 -7 3 -13 20 -13 38 0 18 6 36 13 38
10 4 10 6 0 6 -7 1 -13 8 -13 16 0 8 -4 15 -10 15 -5 0 -10 -6 -10 -14z"/>
<path d="M4890 4126 c0 -8 -6 -17 -12 -19 -10 -4 -10 -6 0 -6 7 -1 12 -16 12
-41 0 -39 21 -64 38 -45 4 4 1 10 -5 12 -7 3 -13 20 -13 38 0 18 6 36 13 38
10 4 10 6 0 6 -7 1 -13 8 -13 16 0 8 -4 15 -10 15 -5 0 -10 -6 -10 -14z"/>
<path d="M5535 4130 c-9 -15 -9 -71 1 -102 6 -19 44 -25 44 -8 0 6 -6 9 -12 8
-21 -5 -22 54 -2 69 16 11 16 13 2 13 -9 0 -18 8 -20 18 -3 14 -5 15 -13 2z"/>
<path d="M6810 4126 c0 -8 -6 -17 -12 -19 -10 -4 -10 -6 0 -6 7 -1 12 -16 12
-41 0 -39 21 -64 38 -45 4 4 1 10 -5 12 -7 3 -13 20 -13 38 0 18 6 36 13 38
10 4 10 6 0 6 -7 1 -13 8 -13 16 0 8 -4 15 -10 15 -5 0 -10 -6 -10 -14z"/>
<path d="M7550 4126 c0 -8 -6 -17 -12 -19 -10 -4 -10 -6 0 -6 7 -1 12 -16 12
-41 0 -39 21 -64 38 -45 4 4 1 10 -5 12 -7 3 -13 20 -13 38 0 18 6 36 13 38
10 4 10 6 0 6 -7 1 -13 8 -13 16 0 8 -4 15 -10 15 -5 0 -10 -6 -10 -14z"/>
<path d="M7790 4126 c0 -8 -6 -17 -12 -19 -10 -4 -10 -6 0 -6 7 -1 12 -16 12
-41 0 -39 21 -64 38 -45 4 4 1 10 -5 12 -7 3 -13 20 -13 38 0 18 6 36 13 38
10 4 10 6 0 6 -7 1 -13 8 -13 16 0 8 -4 15 -10 15 -5 0 -10 -6 -10 -14z"/>
<path d="M9380 4126 c0 -8 -6 -17 -12 -19 -10 -4 -10 -6 0 -6 7 -1 12 -16 12
-41 0 -39 21 -64 38 -45 4 4 1 10 -5 12 -7 3 -13 20 -13 38 0 18 6 36 13 38
10 4 10 6 0 6 -7 1 -13 8 -13 16 0 8 -4 15 -10 15 -5 0 -10 -6 -10 -14z"/>
<path d="M10440 4126 c0 -8 -6 -17 -12 -19 -10 -4 -10 -6 0 -6 7 -1 12 -16 12
-41 0 -39 21 -64 38 -45 4 4 1 10 -5 12 -7 3 -13 20 -13 38 0 18 6 36 13 38
10 4 10 6 0 6 -7 1 -13 8 -13 16 0 8 -4 15 -10 15 -5 0 -10 -6 -10 -14z"/>
<path d="M10761 4128 c0 -10 -6 -18 -13 -18 -9 0 -9 -3 0 -12 7 -7 12 -29 12
-50 0 -31 4 -38 20 -38 11 0 20 5 20 10 0 6 -6 9 -12 8 -21 -5 -22 54 -2 69
16 11 16 13 2 13 -9 0 -19 8 -21 18 -4 16 -5 16 -6 0z"/>
<path d="M11650 4126 c0 -8 -6 -17 -12 -19 -10 -4 -10 -6 0 -6 7 -1 12 -16 12
-41 0 -39 21 -64 38 -45 4 4 1 10 -5 12 -7 3 -13 20 -13 38 0 18 6 36 13 38
10 4 10 6 0 6 -7 1 -13 8 -13 16 0 8 -4 15 -10 15 -5 0 -10 -6 -10 -14z"/>
<path d="M2242 4098 c-15 -15 -16 -60 0 -76 15 -15 55 -16 64 0 5 8 2 9 -9 5
-22 -8 -47 2 -47 19 0 9 12 14 35 14 31 0 34 2 26 23 -9 25 -50 34 -69 15z
m39 -26 c-28 -4 -40 6 -21 18 9 6 20 4 29 -3 12 -10 11 -13 -8 -15z"/>
<path d="M2339 4094 c-11 -14 -10 -18 5 -30 10 -7 23 -15 29 -17 6 -2 7 -9 3
-15 -5 -8 -16 -10 -28 -6 -14 4 -18 2 -14 -5 11 -17 56 -13 63 6 4 11 -3 24
-21 38 -29 23 -22 41 10 28 12 -4 15 -3 10 5 -10 17 -41 15 -57 -4z"/>
<path d="M2420 4060 c0 -27 5 -50 10 -50 6 0 10 23 10 50 0 28 -4 50 -10 50
-5 0 -10 -22 -10 -50z"/>
<path d="M2474 4084 c-14 -20 -15 -30 -5 -51 9 -21 17 -24 41 -21 20 3 30 0
30 -8 0 -18 -35 -35 -54 -28 -9 3 -16 1 -16 -5 0 -17 56 -13 74 5 11 10 16 34
16 73 l0 58 -35 1 c-27 1 -39 -4 -51 -24z m66 -24 c0 -28 -27 -45 -45 -30 -20
17 -19 47 2 59 21 11 43 -3 43 -29z"/>
<path d="M2590 4059 c0 -27 5 -49 10 -49 6 0 10 18 10 39 0 68 44 61 53 -9 3
-23 4 -18 3 15 l-1 50 -37 2 -38 1 0 -49z"/>
<path d="M2712 4098 c-15 -15 -16 -60 0 -76 15 -15 55 -16 64 0 5 8 2 9 -9 5
-22 -8 -47 2 -47 19 0 9 12 14 35 14 31 0 34 2 26 23 -9 25 -50 34 -69 15z
m39 -26 c-28 -4 -40 6 -21 18 9 6 20 4 29 -3 12 -10 11 -13 -8 -15z"/>
<path d="M3052 4098 c-7 -7 -12 -24 -12 -38 0 -32 17 -50 45 -50 25 0 55 29
55 53 0 38 -61 62 -88 35z m68 -38 c0 -21 -27 -40 -47 -33 -7 3 -13 17 -13 33
0 16 6 30 13 33 20 7 47 -12 47 -33z"/>
<path d="M3160 4059 c0 -27 5 -49 10 -49 6 0 10 18 10 40 0 26 6 42 17 48 13
8 11 10 -10 10 -26 0 -27 -3 -27 -49z"/>
<path d="M3270 4106 c0 -2 9 -25 20 -50 20 -48 18 -76 -6 -76 -8 0 -14 -4 -14
-10 0 -14 26 -12 37 3 17 21 56 127 49 134 -3 3 -13 -11 -23 -33 l-16 -39 -15
38 c-8 20 -19 37 -23 37 -5 0 -9 -2 -9 -4z"/>
<path d="M3384 4085 c-15 -23 -15 -27 0 -50 29 -44 86 -28 86 25 0 53 -57 69
-86 25z m60 -1 c20 -19 20 -29 0 -48 -19 -20 -54 -5 -54 24 0 15 21 37 37 40
1 0 9 -7 17 -16z"/>
<path d="M3503 4065 l2 -50 38 -2 37 -1 0 49 c0 27 -4 49 -10 49 -5 0 -10 -18
-10 -39 0 -25 -5 -41 -15 -44 -17 -7 -27 6 -36 53 -7 31 -7 29 -6 -15z"/>
<path d="M3742 4098 c-7 -7 -12 -24 -12 -38 0 -32 17 -50 45 -50 25 0 55 29
55 53 0 38 -61 62 -88 35z m68 -38 c0 -21 -27 -40 -47 -33 -7 3 -13 17 -13 33
0 16 6 30 13 33 20 7 47 -12 47 -33z"/>
<path d="M3904 4095 c-7 -18 13 -45 33 -45 8 0 13 -6 10 -12 -2 -7 -14 -12
-26 -11 -11 2 -21 -2 -21 -7 0 -16 46 -11 61 6 11 14 10 18 -6 30 -10 8 -23
14 -28 14 -5 0 -7 6 -4 13 2 6 11 11 21 9 9 -2 16 2 16 8 0 16 -50 12 -56 -5z"/>
<path d="M4115 4099 c-4 -6 -1 -10 6 -8 47 6 54 -16 8 -25 -25 -5 -30 -10 -27
-28 2 -19 10 -23 41 -25 36 -1 37 0 37 36 0 20 -5 42 -12 49 -15 15 -45 16
-53 1z m34 -69 c-14 -9 -29 -4 -29 10 0 12 34 18 39 7 2 -5 -3 -13 -10 -17z"/>
<path d="M4211 4055 l1 -50 8 39 c4 22 16 45 26 53 17 12 16 13 -9 11 -26 -2
-27 -5 -26 -53z"/>
<path d="M4282 4098 c-7 -7 -12 -24 -12 -38 0 -14 5 -31 12 -38 15 -15 68 -16
68 -1 0 6 -7 9 -15 5 -21 -8 -45 3 -45 20 0 9 12 14 35 14 38 0 40 2 25 31
-12 21 -50 25 -68 7z m58 -19 c0 -5 -11 -9 -25 -9 -26 0 -34 15 -12 23 16 5
37 -3 37 -14z"/>
<path d="M4420 4106 c0 -2 9 -25 20 -50 20 -48 18 -76 -6 -76 -8 0 -14 -4 -14
-10 0 -14 26 -12 37 3 17 21 56 127 49 134 -3 3 -13 -11 -23 -33 l-16 -39 -15
38 c-8 20 -19 37 -23 37 -5 0 -9 -2 -9 -4z"/>
<path d="M4534 4085 c-15 -23 -15 -27 0 -50 29 -44 86 -28 86 25 0 53 -57 69
-86 25z m60 -1 c20 -19 20 -29 0 -48 -19 -20 -54 -5 -54 24 0 15 21 37 37 40
1 0 9 -7 17 -16z"/>
<path d="M4653 4065 l2 -50 38 -2 37 -1 0 49 c0 27 -4 49 -10 49 -5 0 -10 -18
-10 -39 0 -25 -5 -41 -15 -44 -17 -7 -27 6 -36 53 -7 31 -7 29 -6 -15z"/>
<path d="M4760 4059 c0 -27 5 -49 10 -49 6 0 10 18 10 40 0 26 6 42 17 48 13
8 11 10 -10 10 -26 0 -27 -3 -27 -49z"/>
<path d="M5071 4096 c-16 -19 -10 -66 10 -79 44 -28 95 25 69 72 -13 25 -61
29 -79 7z m57 -8 c27 -27 2 -75 -32 -62 -19 7 -22 60 -3 67 19 8 22 8 35 -5z"/>
<path d="M5180 4071 c0 -46 14 -60 58 -59 32 1 32 2 32 50 0 26 -4 48 -10 48
-5 0 -10 -15 -10 -33 0 -37 -15 -58 -36 -50 -9 3 -14 20 -14 44 0 21 -4 39
-10 39 -5 0 -10 -17 -10 -39z"/>
<path d="M5302 4098 c-17 -17 -15 -63 3 -78 8 -7 24 -10 35 -7 15 4 20 0 20
-13 0 -20 -23 -32 -45 -24 -8 4 -15 1 -15 -5 0 -15 53 -14 68 1 7 7 12 39 12
75 l0 63 -33 0 c-18 0 -38 -5 -45 -12z m58 -38 c0 -16 -6 -30 -12 -33 -24 -8
-38 5 -38 33 0 16 6 30 13 33 23 8 37 -5 37 -33z"/>
<path d="M5594 4095 c-7 -18 13 -45 33 -45 8 0 13 -6 10 -12 -2 -7 -14 -12
-26 -11 -11 2 -21 -2 -21 -7 0 -16 46 -11 61 6 11 14 10 18 -6 30 -10 8 -23
14 -28 14 -5 0 -7 6 -4 13 2 6 11 11 21 9 9 -2 16 2 16 8 0 16 -50 12 -56 -5z"/>
<path d="M5780 4060 c0 -27 5 -50 10 -50 6 0 10 23 10 50 0 28 -4 50 -10 50
-5 0 -10 -22 -10 -50z"/>
<path d="M5952 4098 c-7 -7 -12 -24 -12 -38 0 -14 5 -31 12 -38 15 -15 68 -16
68 -1 0 6 -7 9 -15 5 -21 -8 -45 3 -45 20 0 9 12 14 35 14 38 0 40 2 25 31
-12 21 -50 25 -68 7z m58 -19 c0 -5 -11 -9 -25 -9 -26 0 -34 15 -12 23 16 5
37 -3 37 -14z"/>
<path d="M6057 4104 c-15 -15 -6 -24 12 -14 14 7 22 7 26 -1 8 -12 9 -11 -28
-27 -42 -18 -32 -47 16 -49 l38 -1 -3 46 c-3 42 -6 47 -28 50 -14 2 -29 0 -33
-4z m32 -74 c-14 -9 -29 -4 -29 10 0 12 34 18 39 7 2 -5 -3 -13 -10 -17z"/>
<path d="M6151 4096 c-9 -11 -8 -18 4 -30 9 -9 21 -16 27 -16 5 0 8 -6 5 -12
-2 -7 -14 -12 -27 -10 -14 2 -20 0 -16 -7 11 -17 56 -13 63 6 4 11 -3 24 -21
38 -28 22 -23 41 8 29 9 -3 16 -1 16 5 0 16 -45 14 -59 -3z"/>
<path d="M6345 4099 c-4 -6 -1 -10 6 -8 47 6 54 -16 8 -25 -25 -5 -30 -10 -27
-28 2 -19 10 -23 41 -25 36 -1 37 0 37 36 0 20 -5 42 -12 49 -15 15 -45 16
-53 1z m34 -69 c-14 -9 -29 -4 -29 10 0 12 34 18 39 7 2 -5 -3 -13 -10 -17z"/>
<path d="M6441 4055 c1 -50 1 -50 9 -12 13 71 50 76 50 6 0 -21 5 -39 11 -39
6 0 9 19 7 48 l-3 47 -37 0 -38 1 1 -51z"/>
<path d="M6721 4096 c-9 -11 -8 -18 4 -30 9 -9 21 -16 27 -16 5 0 8 -6 5 -12
-2 -7 -14 -12 -27 -10 -14 2 -20 0 -16 -7 11 -17 56 -13 63 6 4 11 -3 24 -21
38 -28 22 -23 41 8 29 9 -3 16 -1 16 5 0 16 -45 14 -59 -3z"/>
<path d="M6882 4098 c-7 -7 -12 -24 -12 -38 0 -32 17 -50 45 -50 25 0 55 29
55 53 0 38 -61 62 -88 35z m68 -38 c0 -21 -27 -40 -47 -33 -7 3 -13 17 -13 33
0 16 6 30 13 33 20 7 47 -12 47 -33z"/>
<path d="M6990 4059 c0 -27 5 -49 10 -49 6 0 10 18 10 40 0 26 6 42 17 48 13
8 11 10 -10 10 -26 0 -27 -3 -27 -49z"/>
<path d="M7060 4060 c0 -27 5 -50 10 -50 6 0 10 23 10 50 0 28 -4 50 -10 50
-5 0 -10 -22 -10 -50z"/>
<path d="M7116 4094 c-32 -32 -11 -84 34 -84 17 0 30 5 30 11 0 6 -7 8 -16 5
-17 -6 -44 9 -44 25 0 5 16 9 35 9 36 0 46 15 23 38 -17 17 -44 15 -62 -4z
m54 -15 c0 -5 -12 -9 -26 -9 -22 0 -24 2 -14 14 12 15 40 11 40 -5z"/>
<path d="M7217 4103 c-15 -14 -6 -40 19 -51 28 -14 23 -36 -7 -27 -11 4 -19 2
-19 -4 0 -16 46 -13 59 3 9 11 8 18 -4 30 -9 9 -21 16 -27 16 -5 0 -8 6 -5 13
2 6 11 11 21 9 9 -2 16 2 16 8 0 11 -43 14 -53 3z"/>
<path d="M7340 4107 c0 -15 34 -97 40 -97 4 0 14 15 20 33 l13 32 10 -32 c12
-39 24 -42 36 -10 16 43 21 77 12 77 -5 0 -13 -17 -18 -37 l-10 -38 -9 34
c-13 45 -30 50 -39 12 -8 -39 -21 -40 -28 -1 -4 17 -11 30 -17 30 -5 0 -10 -1
-10 -3z"/>
<path d="M7500 4060 c0 -27 5 -50 10 -50 6 0 10 23 10 50 0 28 -4 50 -10 50
-5 0 -10 -22 -10 -50z"/>
<path d="M7972 4098 c-15 -15 -16 -60 0 -76 15 -15 55 -16 64 0 5 8 2 9 -9 5
-22 -8 -47 2 -47 19 0 9 12 14 35 14 31 0 34 2 26 23 -9 25 -50 34 -69 15z
m39 -26 c-28 -4 -40 6 -21 18 9 6 20 4 29 -3 12 -10 11 -13 -8 -15z"/>
<path d="M8110 4107 c0 -15 34 -97 40 -97 4 0 14 15 20 33 l13 32 10 -32 c12
-39 24 -42 36 -10 16 43 21 77 12 77 -5 0 -13 -17 -18 -37 l-10 -38 -9 34
c-13 45 -30 50 -39 12 -8 -39 -21 -40 -28 -1 -4 17 -11 30 -17 30 -5 0 -10 -1
-10 -3z"/>
<path d="M8276 4094 c-32 -31 -8 -84 38 -84 29 0 46 18 46 50 0 14 -5 31 -12
38 -17 17 -54 15 -72 -4z m64 -34 c0 -31 -16 -42 -42 -28 -23 11 -23 44 -1 56
25 15 43 3 43 -28z"/>
<path d="M8380 4058 c0 -26 5 -48 10 -48 6 0 10 15 10 33 0 36 8 51 30 59 8 3
0 6 -17 5 -33 0 -33 -1 -33 -49z"/>
<path d="M8873 4065 l2 -50 38 -2 37 -1 0 49 c0 27 -4 49 -10 49 -5 0 -10 -18
-10 -39 0 -25 -5 -41 -15 -44 -17 -7 -27 6 -36 53 -7 31 -7 29 -6 -15z"/>
<path d="M8980 4058 c0 -26 5 -48 10 -48 6 0 10 15 10 33 0 36 8 51 30 59 8 3
0 6 -17 5 -33 0 -33 -1 -33 -49z"/>
<path d="M9111 4030 c1 -48 4 -64 8 -45 5 25 11 30 36 30 23 0 32 6 39 28 14
40 -2 62 -48 62 l-36 1 1 -76z m69 35 c0 -32 -25 -51 -45 -35 -19 16 -19 35 0
54 20 20 45 10 45 -19z"/>
<path d="M9285 4099 c-4 -6 -1 -10 6 -8 47 6 54 -16 8 -25 -25 -5 -30 -10 -27
-28 2 -19 10 -23 41 -25 36 -1 37 0 37 36 0 20 -5 42 -12 49 -15 15 -45 16
-53 1z m34 -69 c-14 -9 -29 -4 -29 10 0 12 34 18 39 7 2 -5 -3 -13 -10 -17z"/>
<path d="M9511 4096 c-16 -19 -10 -66 10 -79 44 -28 95 25 69 72 -13 25 -61
29 -79 7z m57 -8 c27 -27 2 -75 -32 -62 -19 7 -22 60 -3 67 19 8 22 8 35 -5z"/>
<path d="M9620 4059 c0 -27 5 -49 10 -49 6 0 10 18 10 40 0 26 6 42 17 48 13
8 11 10 -10 10 -26 0 -27 -3 -27 -49z"/>
<path d="M9690 4059 c0 -27 5 -49 10 -49 6 0 10 18 10 39 0 24 5 41 14 44 20
8 26 -2 26 -45 0 -21 5 -38 10 -38 6 0 10 15 10 34 0 33 20 62 33 49 4 -3 7
-24 7 -45 0 -21 5 -38 11 -38 6 0 9 19 7 48 l-3 47 -67 1 -68 1 0 -48z"/>
<path d="M9920 4060 c0 -27 5 -50 10 -50 6 0 10 23 10 50 0 28 -4 50 -10 50
-5 0 -10 -22 -10 -50z"/>
<path d="M9964 4095 c-7 -18 13 -45 33 -45 8 0 13 -6 10 -12 -2 -7 -14 -12
-26 -11 -11 2 -21 -2 -21 -7 0 -16 46 -11 61 6 11 14 10 18 -6 30 -10 8 -23
14 -28 14 -5 0 -7 6 -4 13 2 6 11 11 21 9 9 -2 16 2 16 8 0 16 -50 12 -56 -5z"/>
<path d="M10220 4071 c0 -46 14 -60 58 -59 32 1 32 2 32 50 0 26 -4 48 -10 48
-5 0 -10 -15 -10 -33 0 -37 -15 -58 -36 -50 -9 3 -14 20 -14 44 0 21 -4 39
-10 39 -5 0 -10 -17 -10 -39z"/>
<path d="M10340 4060 c0 -27 5 -50 10 -50 6 0 10 23 10 50 0 28 -4 50 -10 50
-5 0 -10 -22 -10 -50z"/>
<path d="M10543 4103 c3 -5 10 -27 16 -50 7 -24 15 -43 20 -43 5 0 15 17 23
38 l15 37 8 -37 c8 -44 21 -49 35 -13 18 47 22 75 12 75 -5 0 -13 -17 -17 -37
l-8 -38 -11 34 c-17 48 -32 49 -41 4 l-8 -38 -15 38 c-8 20 -19 37 -24 37 -5
0 -7 -3 -5 -7z"/>
<path d="M10700 4060 c0 -27 5 -50 10 -50 6 0 10 23 10 50 0 28 -4 50 -10 50
-5 0 -10 -22 -10 -50z"/>
<path d="M10984 4095 c-7 -18 13 -45 33 -45 8 0 13 -6 10 -12 -2 -7 -14 -12
-26 -11 -11 2 -21 -2 -21 -7 0 -16 46 -11 61 6 11 14 10 18 -6 30 -10 8 -23
14 -28 14 -5 0 -7 6 -4 13 2 6 11 11 21 9 9 -2 16 2 16 8 0 16 -50 12 -56 -5z"/>
<path d="M11070 4060 c0 -27 5 -50 10 -50 6 0 10 23 10 50 0 28 -4 50 -10 50
-5 0 -10 -22 -10 -50z"/>
<path d="M11120 4058 c0 -26 5 -48 10 -48 6 0 10 18 10 40 0 33 3 40 20 40 17
0 20 -7 20 -40 0 -22 5 -40 10 -40 6 0 10 18 10 39 0 24 5 41 14 44 20 8 26
-2 26 -45 0 -21 5 -38 11 -38 6 0 9 19 7 48 l-3 47 -67 1 -68 1 0 -49z"/>
<path d="M11290 4033 c0 -42 4 -73 10 -73 6 0 10 13 10 29 0 24 3 28 20 24 28
-7 50 14 50 47 0 35 -17 49 -58 48 l-32 -1 0 -74z m80 32 c0 -20 -29 -45 -45
-39 -18 7 -20 45 -3 62 14 14 48 -2 48 -23z"/>
<path d="M11460 4060 c0 -27 5 -50 10 -50 6 0 10 23 10 50 0 28 -4 50 -10 50
-5 0 -10 -22 -10 -50z"/>
<path d="M11516 4094 c-19 -18 -21 -55 -4 -72 15 -15 55 -16 64 0 5 8 2 9 -9
5 -26 -10 -47 3 -47 28 0 29 22 47 45 38 13 -4 16 -3 11 5 -10 17 -42 15 -60
-4z"/>
<path d="M11600 4060 c0 -27 5 -50 10 -50 6 0 10 23 10 50 0 28 -4 50 -10 50
-5 0 -10 -22 -10 -50z"/>
<path d="M11700 4106 c0 -2 9 -25 20 -50 20 -48 18 -76 -6 -76 -8 0 -14 -4
-14 -10 0 -14 26 -12 37 3 17 21 56 127 49 134 -3 3 -13 -11 -23 -33 l-16 -39
-15 38 c-8 20 -19 37 -23 37 -5 0 -9 -2 -9 -4z"/>
<path d="M5676 4014 c-9 -23 -7 -36 3 -30 12 8 21 46 11 46 -4 0 -11 -7 -14
-16z"/>
<path d="M6228 4005 c-3 -14 -1 -25 3 -25 5 0 9 4 9 9 0 5 3 16 6 25 3 9 2 16
-4 16 -5 0 -12 -11 -14 -25z"/>
<path d="M8620 4020 c0 -5 5 -10 10 -10 6 0 10 5 10 10 0 6 -4 10 -10 10 -5 0
-10 -4 -10 -10z"/>
<path d="M2400 3831 c0 -24 -3 -28 -24 -24 -34 7 -61 -34 -47 -71 9 -22 16
-26 51 -24 l40 1 0 74 c0 42 -4 73 -10 73 -5 0 -10 -13 -10 -29z m0 -71 c0
-28 -27 -45 -45 -30 -20 17 -19 47 2 59 21 11 43 -3 43 -29z"/>
<path d="M2972 3848 c-7 -7 -12 -17 -12 -24 0 -7 -6 -15 -12 -17 -10 -4 -10
-6 0 -6 8 -1 12 -17 12 -46 0 -25 5 -45 10 -45 6 0 10 20 10 44 0 26 5 46 13
49 10 4 10 6 0 6 -19 1 -16 28 5 40 14 9 14 10 2 11 -9 0 -21 -5 -28 -12z"/>
<path d="M3090 3850 c0 -5 5 -10 10 -10 6 0 10 5 10 10 0 6 -4 10 -10 10 -5 0
-10 -4 -10 -10z"/>
<path d="M3420 3831 c0 -24 -3 -28 -20 -24 -28 7 -50 -14 -50 -47 0 -35 17
-49 58 -48 l32 1 0 74 c0 42 -4 73 -10 73 -5 0 -10 -13 -10 -29z m0 -71 c0
-16 -6 -30 -12 -33 -24 -8 -38 5 -38 33 0 16 6 30 13 33 23 8 37 -5 37 -33z"/>
<path d="M3470 3785 c0 -43 4 -75 10 -75 6 0 10 32 10 75 0 43 -4 75 -10 75
-6 0 -10 -32 -10 -75z"/>
<path d="M3520 3850 c0 -5 5 -10 10 -10 6 0 10 5 10 10 0 6 -4 10 -10 10 -5 0
-10 -4 -10 -10z"/>
<path d="M4010 3850 c0 -5 5 -10 10 -10 6 0 10 5 10 10 0 6 -4 10 -10 10 -5 0
-10 -4 -10 -10z"/>
<path d="M4400 3850 c0 -5 5 -10 10 -10 6 0 10 5 10 10 0 6 -4 10 -10 10 -5 0
-10 -4 -10 -10z"/>
<path d="M4630 3831 c0 -24 -3 -28 -24 -24 -34 7 -61 -34 -47 -71 9 -22 16
-26 51 -24 l40 1 0 74 c0 42 -4 73 -10 73 -5 0 -10 -13 -10 -29z m0 -71 c0
-28 -27 -45 -45 -30 -20 17 -19 47 2 59 21 11 43 -3 43 -29z"/>
<path d="M4880 3785 c0 -43 4 -75 10 -75 6 0 10 32 10 75 0 43 -4 75 -10 75
-6 0 -10 -32 -10 -75z"/>
<path d="M4930 3785 c0 -43 4 -75 10 -75 6 0 10 32 10 75 0 43 -4 75 -10 75
-6 0 -10 -32 -10 -75z"/>
<path d="M5240 3850 c0 -5 5 -10 10 -10 6 0 10 5 10 10 0 6 -4 10 -10 10 -5 0
-10 -4 -10 -10z"/>
<path d="M6204 3838 c-4 -13 -12 -26 -18 -30 -8 -6 -7 -8 2 -8 8 0 12 -16 12
-45 0 -25 5 -45 10 -45 6 0 10 20 10 44 0 26 5 46 13 49 10 4 10 6 0 6 -15 1
-18 31 -3 31 6 0 10 5 10 10 0 20 -29 10 -36 -12z"/>
<path d="M7150 3785 c0 -43 4 -75 10 -75 6 0 10 18 10 39 0 68 44 61 53 -9 3
-23 4 -18 3 15 -1 48 -2 50 -28 50 -24 -1 -28 3 -28 27 0 15 -4 28 -10 28 -6
0 -10 -32 -10 -75z"/>
<path d="M11135 3850 c-3 -5 -1 -10 4 -10 6 0 11 5 11 10 0 6 -2 10 -4 10 -3
0 -8 -4 -11 -10z"/>
<path d="M10083 3780 c11 -38 25 -70 31 -70 6 0 18 24 27 53 l15 52 14 -52 c8
-29 19 -53 25 -53 10 0 45 101 45 130 0 18 -20 11 -21 -7 0 -10 -6 -36 -13
-58 l-13 -40 -13 58 c-7 32 -18 56 -24 54 -6 -2 -18 -28 -26 -58 l-16 -54 -15
54 c-8 30 -20 56 -26 58 -7 3 -3 -25 10 -67z"/>
<path d="M10720 3830 c0 -11 5 -20 10 -20 6 0 10 9 10 20 0 11 -4 20 -10 20
-5 0 -10 -9 -10 -20z"/>
<path d="M5960 3826 c0 -8 -6 -17 -12 -19 -10 -4 -10 -6 0 -6 7 -1 12 -16 12
-41 0 -39 21 -64 38 -45 4 4 1 10 -5 12 -7 3 -13 20 -13 38 0 18 6 36 13 38
10 4 10 6 0 6 -7 1 -13 8 -13 16 0 8 -4 15 -10 15 -5 0 -10 -6 -10 -14z"/>
<path d="M7370 3826 c0 -8 -6 -17 -12 -19 -10 -4 -10 -6 0 -6 7 -1 12 -16 12
-41 0 -39 21 -64 38 -45 4 4 1 10 -5 12 -7 3 -13 20 -13 38 0 18 6 36 13 38
10 4 10 6 0 6 -7 1 -13 8 -13 16 0 8 -4 15 -10 15 -5 0 -10 -6 -10 -14z"/>
<path d="M7765 3830 c-9 -15 -9 -71 1 -102 6 -19 44 -25 44 -8 0 6 -6 9 -12 8
-21 -5 -22 54 -2 69 16 11 16 13 2 13 -9 0 -18 8 -20 18 -3 14 -5 15 -13 2z"/>
<path d="M7835 3830 c-9 -15 -9 -71 1 -102 6 -19 44 -25 44 -8 0 6 -6 9 -12 8
-21 -5 -22 54 -2 69 16 11 16 13 2 13 -9 0 -18 8 -20 18 -3 14 -5 15 -13 2z"/>
<path d="M8590 3826 c0 -8 -6 -17 -12 -19 -10 -4 -10 -6 0 -6 7 -1 12 -16 12
-41 0 -39 21 -64 38 -45 4 4 1 10 -5 12 -7 3 -13 20 -13 38 0 18 6 36 13 38
10 4 10 6 0 6 -7 1 -13 8 -13 16 0 8 -4 15 -10 15 -5 0 -10 -6 -10 -14z"/>
<path d="M9630 3826 c0 -8 -6 -17 -12 -19 -10 -4 -10 -6 0 -6 7 -1 12 -16 12
-41 0 -39 21 -64 38 -45 4 4 1 10 -5 12 -7 3 -13 20 -13 38 0 18 6 36 13 38
10 4 10 6 0 6 -7 1 -13 8 -13 16 0 8 -4 15 -10 15 -5 0 -10 -6 -10 -14z"/>
<path d="M9921 3828 c0 -10 -6 -18 -13 -18 -9 0 -9 -3 0 -12 7 -7 12 -29 12
-50 0 -31 4 -38 20 -38 11 0 20 5 20 10 0 6 -6 9 -12 8 -21 -5 -22 54 -2 69
16 11 16 13 2 13 -9 0 -19 8 -21 18 -4 16 -5 16 -6 0z"/>
<path d="M10775 3830 c-9 -15 -9 -71 1 -102 6 -19 44 -25 44 -8 0 6 -6 9 -12
8 -21 -5 -22 54 -2 69 16 11 16 13 2 13 -9 0 -18 8 -20 18 -3 14 -5 15 -13 2z"/>
<path d="M11190 3826 c0 -8 -6 -17 -12 -19 -10 -4 -10 -6 0 -6 7 -1 12 -16 12
-41 0 -39 21 -64 38 -45 4 4 1 10 -5 12 -7 3 -13 20 -13 38 0 18 6 36 13 38
10 4 10 6 0 6 -7 1 -13 8 -13 16 0 8 -4 15 -10 15 -5 0 -10 -6 -10 -14z"/>
<path d="M11315 3830 c-9 -15 -9 -71 1 -102 6 -19 44 -25 44 -8 0 6 -6 9 -12
8 -21 -5 -22 54 -2 69 16 11 16 13 2 13 -9 0 -18 8 -20 18 -3 14 -5 15 -13 2z"/>
<path d="M2127 3803 c-14 -13 -7 -25 8 -13 8 6 19 9 25 5 18 -11 11 -22 -21
-29 -25 -5 -30 -10 -27 -28 2 -19 10 -23 41 -25 36 -1 37 0 37 32 0 18 -3 40
-6 49 -6 16 -45 22 -57 9z m32 -73 c-14 -9 -29 -4 -29 10 0 12 34 18 39 7 2
-5 -3 -13 -10 -17z"/>
<path d="M2220 3759 c0 -27 5 -49 10 -49 6 0 10 18 10 39 0 68 44 61 53 -9 3
-23 4 -18 3 15 l-1 50 -37 2 -38 1 0 -49z"/>
<path d="M2500 3771 c0 -46 14 -60 58 -59 32 1 32 2 32 50 0 26 -4 48 -10 48
-5 0 -10 -15 -10 -33 0 -37 -15 -58 -36 -50 -9 3 -14 20 -14 44 0 21 -4 39
-10 39 -5 0 -10 -17 -10 -39z"/>
<path d="M2614 3795 c-7 -18 13 -45 33 -45 8 0 13 -6 10 -12 -2 -7 -14 -12
-26 -11 -11 2 -21 -2 -21 -7 0 -16 46 -11 61 6 11 14 10 18 -6 30 -10 8 -23
14 -28 14 -5 0 -7 6 -4 13 2 6 11 11 21 9 9 -2 16 2 16 8 0 16 -50 12 -56 -5z"/>
<path d="M2705 3786 c-16 -23 -11 -54 9 -68 17 -12 54 -9 62 4 5 7 1 9 -13 6
-24 -6 -56 9 -48 23 4 5 19 9 36 9 30 0 38 17 17 38 -19 19 -46 14 -63 -12z
m53 -4 c2 -7 -7 -12 -23 -12 -24 0 -26 2 -15 15 14 17 31 16 38 -3z"/>
<path d="M2811 3755 l1 -50 8 39 c4 22 16 45 26 53 17 12 16 13 -9 11 -26 -2
-27 -5 -26 -53z"/>
<path d="M3020 3759 c0 -27 5 -49 10 -49 6 0 10 18 10 40 0 26 6 42 17 48 13
8 11 10 -10 10 -26 0 -27 -3 -27 -49z"/>
<path d="M3090 3760 c0 -27 5 -50 10 -50 6 0 10 23 10 50 0 28 -4 50 -10 50
-5 0 -10 -22 -10 -50z"/>
<path d="M3142 3798 c-7 -7 -12 -24 -12 -38 0 -14 5 -31 12 -38 15 -15 68 -16
68 -1 0 6 -7 9 -15 5 -21 -8 -45 3 -45 20 0 9 12 14 35 14 38 0 40 2 25 31
-12 21 -50 25 -68 7z m58 -19 c0 -5 -11 -9 -25 -9 -26 0 -34 15 -12 23 16 5
37 -3 37 -14z"/>
<path d="M3240 3758 c0 -26 5 -48 10 -48 6 0 10 18 10 39 0 24 5 41 14 44 21
8 36 -13 36 -50 0 -18 5 -33 10 -33 13 0 13 56 0 80 -7 14 -20 19 -45 18 -35
-1 -35 -1 -35 -50z"/>
<path d="M3520 3760 c0 -27 5 -50 10 -50 6 0 10 23 10 50 0 28 -4 50 -10 50
-5 0 -10 -22 -10 -50z"/>
<path d="M3570 3759 c0 -27 5 -49 10 -49 6 0 10 18 10 39 0 68 44 61 53 -9 3
-23 4 -18 3 15 l-1 50 -37 2 -38 1 0 -49z"/>
<path d="M3685 3786 c-16 -23 -11 -54 9 -68 17 -12 54 -9 62 4 5 7 1 9 -13 6
-24 -6 -56 9 -48 23 4 5 19 9 36 9 30 0 38 17 17 38 -19 19 -46 14 -63 -12z
m53 -4 c2 -7 -7 -12 -23 -12 -24 0 -26 2 -15 15 14 17 31 16 38 -3z"/>
<path d="M3784 3795 c-7 -18 13 -45 33 -45 8 0 13 -6 10 -12 -2 -7 -14 -12
-26 -11 -11 2 -21 -2 -21 -7 0 -16 46 -11 61 6 11 14 10 18 -6 30 -10 8 -23
14 -28 14 -5 0 -7 6 -4 13 2 6 11 11 21 9 9 -2 16 2 16 8 0 16 -50 12 -56 -5z"/>
<path d="M3871 3796 c-9 -11 -8 -18 4 -30 9 -9 21 -16 27 -16 5 0 8 -6 5 -12
-2 -7 -14 -12 -27 -10 -14 2 -20 0 -16 -7 11 -17 56 -13 63 6 4 11 -3 24 -21
38 -28 22 -23 41 8 29 9 -3 16 -1 16 5 0 16 -45 14 -59 -3z"/>
<path d="M4010 3760 c0 -27 5 -50 10 -50 6 0 10 23 10 50 0 28 -4 50 -10 50
-5 0 -10 -22 -10 -50z"/>
<path d="M4060 3759 c0 -27 5 -49 10 -49 6 0 10 18 10 39 0 68 44 61 53 -9 3
-23 4 -18 3 15 l-1 50 -37 2 -38 1 0 -49z"/>
<path d="M4230 3758 c0 -26 5 -48 10 -48 6 0 10 18 10 40 0 33 3 40 20 40 17
0 20 -7 20 -40 0 -22 5 -40 10 -40 6 0 10 18 10 39 0 24 5 41 14 44 20 8 26
-2 26 -45 0 -21 5 -38 11 -38 6 0 9 19 7 48 l-3 47 -67 1 -68 1 0 -49z"/>
<path d="M4400 3760 c0 -27 5 -50 10 -50 6 0 10 23 10 50 0 28 -4 50 -10 50
-5 0 -10 -22 -10 -50z"/>
<path d="M4450 3759 c0 -27 5 -49 10 -49 6 0 10 18 10 39 0 68 44 61 53 -9 3
-23 4 -18 3 15 l-1 50 -37 2 -38 1 0 -49z"/>
<path d="M4787 3803 c-14 -13 -7 -25 8 -13 8 6 19 9 25 5 18 -11 11 -22 -21
-29 -25 -5 -30 -10 -27 -28 2 -19 10 -23 41 -25 36 -1 37 0 37 32 0 18 -3 40
-6 49 -6 16 -45 22 -57 9z m32 -73 c-14 -9 -29 -4 -29 10 0 12 34 18 39 7 2
-5 -3 -13 -10 -17z"/>
<path d="M4981 3796 c-16 -19 -10 -66 10 -79 44 -28 95 25 69 72 -13 25 -61
29 -79 7z m57 -8 c27 -27 2 -75 -32 -62 -19 7 -22 60 -3 67 19 8 22 8 35 -5z"/>
<path d="M5080 3807 c0 -15 34 -97 40 -97 4 0 14 15 20 33 l13 32 10 -32 c12
-39 24 -42 36 -10 16 43 21 77 12 77 -5 0 -13 -17 -18 -37 l-10 -38 -9 34
c-13 45 -30 50 -39 12 -8 -39 -21 -40 -28 -1 -4 17 -11 30 -17 30 -5 0 -10 -1
-10 -3z"/>
<path d="M5240 3760 c0 -27 5 -50 10 -50 6 0 10 23 10 50 0 28 -4 50 -10 50
-5 0 -10 -22 -10 -50z"/>
<path d="M5291 3755 c1 -50 1 -50 9 -12 13 71 50 76 50 6 0 -21 5 -39 11 -39
6 0 9 19 7 48 l-3 47 -37 0 -38 1 1 -51z"/>
<path d="M5405 3794 c-33 -33 -6 -90 38 -82 31 6 34 -3 11 -27 -9 -9 -24 -13
-35 -10 -11 4 -19 2 -19 -4 0 -6 13 -11 29 -11 41 0 61 32 61 96 l0 51 -35 1
c-19 1 -41 -5 -50 -14z m53 -6 c18 -18 15 -46 -6 -57 -33 -18 -58 29 -30 57 7
7 15 12 18 12 3 0 11 -5 18 -12z"/>
<path d="M5563 3796 c3 -8 11 -33 18 -56 12 -38 11 -44 -6 -56 -10 -8 -16 -17
-12 -20 14 -15 36 8 55 58 11 29 23 61 27 71 4 9 3 17 -3 17 -5 0 -16 -17 -24
-37 l-14 -38 -14 38 c-8 20 -18 37 -23 37 -5 0 -7 -6 -4 -14z"/>
<path d="M5676 3794 c-32 -31 -8 -84 38 -84 29 0 46 18 46 50 0 14 -5 31 -12
38 -17 17 -54 15 -72 -4z m64 -34 c0 -31 -16 -42 -42 -28 -23 11 -23 44 -1 56
25 15 43 3 43 -28z"/>
<path d="M5780 3779 c0 -50 16 -69 55 -67 35 1 35 1 35 50 0 26 -4 48 -10 48
-5 0 -10 -18 -10 -39 0 -24 -5 -41 -14 -44 -21 -8 -36 13 -36 50 0 18 -4 33
-10 33 -5 0 -10 -14 -10 -31z"/>
<path d="M6024 3785 c-15 -23 -15 -27 0 -50 29 -44 86 -28 86 25 0 53 -57 69
-86 25z m60 -1 c20 -19 20 -29 0 -48 -19 -20 -54 -5 -54 24 0 15 21 37 37 40
1 0 9 -7 17 -16z"/>
<path d="M6261 3796 c-16 -19 -10 -66 10 -79 44 -28 95 25 69 72 -13 25 -61
29 -79 7z m57 -8 c27 -27 2 -75 -32 -62 -19 7 -22 60 -3 67 19 8 22 8 35 -5z"/>
<path d="M6382 3798 c-7 -7 -12 -24 -12 -38 0 -14 5 -31 12 -38 15 -15 58 -16
58 -1 0 5 -4 8 -9 5 -19 -12 -41 7 -41 34 0 27 22 46 41 34 5 -3 9 0 9 5 0 15
-43 14 -58 -1z"/>
<path d="M6460 3779 c0 -50 16 -69 55 -67 35 1 35 1 35 50 0 26 -4 48 -10 48
-5 0 -10 -18 -10 -39 0 -24 -5 -41 -14 -44 -21 -8 -36 13 -36 50 0 18 -4 33
-10 33 -5 0 -10 -14 -10 -31z"/>
<path d="M6579 3794 c-11 -14 -10 -18 5 -30 10 -7 23 -15 29 -17 6 -2 7 -9 3
-15 -5 -8 -16 -10 -28 -6 -14 4 -18 2 -14 -5 11 -17 56 -13 63 6 4 11 -3 24
-21 38 -29 23 -22 41 10 28 12 -4 15 -3 10 5 -10 17 -41 15 -57 -4z"/>
<path d="M6726 3794 c-32 -31 -8 -84 38 -84 29 0 46 18 46 50 0 14 -5 31 -12
38 -17 17 -54 15 -72 -4z m64 -34 c0 -31 -16 -42 -42 -28 -23 11 -23 44 -1 56
25 15 43 3 43 -28z"/>
<path d="M6841 3755 c1 -50 1 -50 9 -12 13 71 50 76 50 6 0 -21 5 -39 11 -39
6 0 9 19 7 48 l-3 47 -37 0 -38 1 1 -51z"/>
<path d="M6990 3807 c0 -15 34 -97 40 -97 4 0 14 15 20 33 l13 32 10 -32 c12
-39 24 -42 36 -10 16 43 21 77 12 77 -5 0 -13 -17 -18 -37 l-10 -38 -9 34
c-13 45 -30 50 -39 12 -8 -39 -21 -40 -28 -1 -4 17 -11 30 -17 30 -5 0 -10 -1
-10 -3z"/>
<path d="M7267 3804 c-14 -15 -6 -24 12 -15 14 8 22 7 31 -4 10 -12 9 -15 -7
-15 -30 0 -55 -23 -47 -43 4 -13 16 -17 41 -15 34 2 34 2 31 48 -3 40 -6 45
-28 48 -14 2 -29 0 -33 -4z m40 -71 c-15 -15 -37 -11 -37 7 0 10 31 19 43 12
5 -2 2 -11 -6 -19z"/>
<path d="M7491 3756 c1 -48 2 -49 8 -16 4 20 11 41 15 48 13 22 36 -6 36 -44
0 -19 5 -34 10 -34 6 0 10 17 10 38 0 43 6 53 26 45 9 -3 14 -20 14 -44 0 -21
5 -39 10 -39 14 0 12 76 -2 88 -7 5 -39 9 -70 9 l-58 -1 1 -50z"/>
<path d="M7667 3804 c-15 -15 -6 -24 12 -14 14 7 22 7 26 -1 8 -12 9 -11 -28
-27 -42 -18 -32 -47 16 -49 l38 -1 -3 46 c-3 42 -6 47 -28 50 -14 2 -29 0 -33
-4z m32 -74 c-14 -9 -29 -4 -29 10 0 12 34 18 39 7 2 -5 -3 -13 -10 -17z"/>
<path d="M7902 3798 c-7 -7 -12 -24 -12 -38 0 -14 5 -31 12 -38 15 -15 68 -16
68 -1 0 6 -7 9 -15 5 -21 -8 -45 3 -45 20 0 9 12 14 35 14 38 0 40 2 25 31
-12 21 -50 25 -68 7z m58 -19 c0 -5 -11 -9 -25 -9 -26 0 -34 15 -12 23 16 5
37 -3 37 -14z"/>
<path d="M8000 3759 c0 -27 5 -49 10 -49 6 0 10 18 10 40 0 26 6 42 17 48 13
8 11 10 -10 10 -26 0 -27 -3 -27 -49z"/>
<path d="M8069 3794 c-11 -14 -10 -18 5 -30 10 -7 23 -15 29 -17 6 -2 7 -9 3
-15 -5 -8 -16 -10 -28 -6 -14 4 -18 2 -14 -5 11 -17 56 -13 63 6 4 11 -3 24
-21 38 -29 23 -22 41 10 28 12 -4 15 -3 10 5 -10 17 -41 15 -57 -4z"/>
<path d="M8210 3758 c0 -26 5 -48 10 -48 6 0 10 18 10 40 0 33 3 40 20 40 17
0 20 -7 20 -40 0 -22 5 -40 10 -40 6 0 10 18 10 39 0 24 5 41 14 44 20 8 26
-2 26 -45 0 -21 5 -38 11 -38 6 0 9 19 7 48 l-3 47 -67 1 -68 1 0 -49z"/>
<path d="M8384 3785 c-15 -23 -15 -27 0 -50 29 -44 86 -28 86 25 0 53 -57 69
-86 25z m60 -1 c20 -19 20 -29 0 -48 -19 -20 -54 -5 -54 24 0 15 21 37 37 40
1 0 9 -7 17 -16z"/>
<path d="M8499 3794 c-11 -14 -10 -18 5 -30 10 -7 23 -15 29 -17 6 -2 7 -9 3
-15 -5 -8 -16 -10 -28 -6 -14 4 -18 2 -14 -5 11 -17 56 -13 63 6 4 11 -3 24
-21 38 -29 23 -22 41 10 28 12 -4 15 -3 10 5 -10 17 -41 15 -57 -4z"/>
<path d="M8843 3796 c3 -8 11 -33 18 -56 12 -38 11 -44 -6 -56 -10 -8 -16 -17
-12 -20 14 -15 36 8 55 58 11 29 23 61 27 71 4 9 3 17 -3 17 -5 0 -16 -17 -24
-37 l-14 -38 -14 38 c-8 20 -18 37 -23 37 -5 0 -7 -6 -4 -14z"/>
<path d="M8956 3794 c-32 -31 -8 -84 38 -84 29 0 46 18 46 50 0 14 -5 31 -12
38 -17 17 -54 15 -72 -4z m64 -34 c0 -31 -16 -42 -42 -28 -23 11 -23 44 -1 56
25 15 43 3 43 -28z"/>
<path d="M9060 3779 c0 -50 16 -69 55 -67 35 1 35 1 35 50 0 26 -4 48 -10 48
-5 0 -10 -18 -10 -39 0 -24 -5 -41 -14 -44 -21 -8 -36 13 -36 50 0 18 -4 33
-10 33 -5 0 -10 -14 -10 -31z"/>
<path d="M9180 3759 c0 -27 5 -49 10 -49 6 0 10 18 10 40 0 26 6 42 17 48 13
8 11 10 -10 10 -26 0 -27 -3 -27 -49z"/>
<path d="M9312 3798 c-7 -7 -12 -24 -12 -38 0 -14 5 -31 12 -38 15 -15 58 -16
58 -1 0 5 -4 8 -9 5 -19 -12 -41 7 -41 34 0 27 22 46 41 34 5 -3 9 0 9 5 0 15
-43 14 -58 -1z"/>
<path d="M9401 3796 c-16 -19 -10 -66 10 -79 44 -28 95 25 69 72 -13 25 -61
29 -79 7z m57 -8 c27 -27 2 -75 -32 -62 -19 7 -22 60 -3 67 19 8 22 8 35 -5z"/>
<path d="M9510 3758 c0 -26 5 -48 10 -48 6 0 10 18 10 39 0 24 5 41 14 44 21
8 36 -13 36 -50 0 -18 5 -33 10 -33 13 0 13 56 0 80 -7 14 -20 19 -45 18 -35
-1 -35 -1 -35 -50z"/>
<path d="M9702 3798 c-15 -15 -16 -60 0 -76 15 -15 55 -16 64 0 5 8 2 9 -9 5
-22 -8 -47 2 -47 19 0 9 12 14 35 14 31 0 34 2 26 23 -9 25 -50 34 -69 15z
m39 -26 c-28 -4 -40 6 -21 18 9 6 20 4 29 -3 12 -10 11 -13 -8 -15z"/>
<path d="M9800 3759 c0 -27 5 -49 10 -49 6 0 10 18 10 39 0 68 44 61 53 -9 3
-23 4 -18 3 15 l-1 50 -37 2 -38 1 0 -49z"/>
<path d="M10262 3798 c-7 -7 -12 -24 -12 -38 0 -14 5 -31 12 -38 15 -15 68
-16 68 -1 0 6 -7 9 -15 5 -21 -8 -45 3 -45 20 0 9 12 14 35 14 38 0 40 2 25
31 -12 21 -50 25 -68 7z m58 -19 c0 -5 -11 -9 -25 -9 -26 0 -34 15 -12 23 16
5 37 -3 37 -14z"/>
<path d="M10426 3794 c-19 -18 -21 -55 -4 -72 15 -15 55 -16 64 0 5 8 2 9 -9
5 -26 -10 -47 3 -47 28 0 29 22 47 45 38 13 -4 16 -3 11 5 -10 17 -42 15 -60
-4z"/>
<path d="M10517 3804 c-15 -15 -6 -24 12 -14 14 7 22 7 26 -1 8 -12 9 -11 -28
-27 -42 -18 -32 -47 16 -49 l38 -1 -3 46 c-3 42 -6 47 -28 50 -14 2 -29 0 -33
-4z m32 -74 c-14 -9 -29 -4 -29 10 0 12 34 18 39 7 2 -5 -3 -13 -10 -17z"/>
<path d="M10610 3759 c0 -27 5 -49 10 -49 6 0 10 18 10 39 0 68 44 61 53 -9 3
-23 4 -18 3 15 l-1 50 -37 2 -38 1 0 -49z"/>
<path d="M10884 3785 c11 -44 25 -75 34 -75 5 0 14 15 19 33 l10 32 13 -32
c16 -44 27 -41 41 10 6 23 13 45 16 50 2 4 -1 7 -7 7 -6 0 -13 -13 -16 -30 -4
-16 -10 -30 -14 -30 -5 0 -11 14 -15 30 -9 40 -21 38 -36 -7 l-13 -38 -9 38
c-5 20 -14 37 -19 37 -6 0 -7 -11 -4 -25z"/>
<path d="M11047 3803 c-14 -13 -7 -25 8 -13 8 6 19 9 25 5 18 -11 11 -22 -21
-29 -25 -5 -30 -10 -27 -28 2 -19 10 -23 41 -25 36 -1 37 0 37 32 0 18 -3 40
-6 49 -6 16 -45 22 -57 9z m32 -73 c-14 -9 -29 -4 -29 10 0 12 34 18 39 7 2
-5 -3 -13 -10 -17z"/>
<path d="M11143 3760 c0 -30 2 -43 4 -27 2 15 2 39 0 55 -2 15 -4 2 -4 -28z"/>
<path d="M11381 3796 c-16 -19 -10 -66 10 -79 44 -28 95 25 69 72 -13 25 -61
29 -79 7z m57 -8 c27 -27 2 -75 -32 -62 -19 7 -22 60 -3 67 19 8 22 8 35 -5z"/>
<path d="M11549 3794 c-11 -14 -10 -18 5 -30 10 -7 23 -15 29 -17 6 -2 7 -9 3
-15 -5 -8 -16 -10 -28 -6 -14 4 -18 2 -14 -5 11 -17 56 -13 63 6 4 11 -3 24
-21 38 -29 23 -22 41 10 28 12 -4 15 -3 10 5 -10 17 -41 15 -57 -4z"/>
<path d="M11642 3798 c-15 -15 -16 -60 0 -76 15 -15 55 -16 64 0 5 8 2 9 -9 5
-22 -8 -47 2 -47 19 0 9 12 14 35 14 31 0 34 2 26 23 -9 25 -50 34 -69 15z
m39 -26 c-28 -4 -40 6 -21 18 9 6 20 4 29 -3 12 -10 11 -13 -8 -15z"/>
<path d="M11746 3794 c-32 -32 -11 -84 34 -84 17 0 30 5 30 11 0 6 -7 8 -16 5
-17 -6 -44 9 -44 25 0 5 16 9 35 9 36 0 46 15 23 38 -17 17 -44 15 -62 -4z
m54 -15 c0 -5 -12 -9 -26 -9 -22 0 -24 2 -14 14 12 15 40 11 40 -5z"/>
<path d="M2883 3763 c9 -2 25 -2 35 0 9 3 1 5 -18 5 -19 0 -27 -2 -17 -5z"/>
<path d="M8683 3763 c32 -2 81 -2 110 0 29 2 3 3 -58 3 -60 0 -84 -1 -52 -3z"/>
<path d="M4677 3724 c-4 -4 -7 -17 -7 -28 1 -19 1 -20 11 -3 11 19 8 43 -4 31z"/>
<path d="M9980 3720 c0 -5 5 -10 10 -10 6 0 10 5 10 10 0 6 -4 10 -10 10 -5 0
-10 -4 -10 -10z"/>
<path d="M2260 3485 c0 -43 4 -75 10 -75 6 0 10 18 10 39 0 24 5 41 14 44 21
8 36 -13 36 -50 0 -18 5 -33 10 -33 13 0 13 41 0 75 -8 22 -15 26 -35 23 -22
-5 -25 -2 -25 23 0 16 -4 29 -10 29 -6 0 -10 -32 -10 -75z"/>
<path d="M2970 3485 c0 -43 4 -75 10 -75 6 0 10 32 10 75 0 43 -4 75 -10 75
-6 0 -10 -32 -10 -75z"/>
<path d="M3020 3485 c0 -43 4 -75 10 -75 6 0 10 32 10 75 0 43 -4 75 -10 75
-6 0 -10 -32 -10 -75z"/>
<path d="M4000 3531 c0 -24 -3 -28 -20 -24 -28 7 -50 -14 -50 -47 0 -35 17
-49 58 -48 l32 1 0 74 c0 42 -4 73 -10 73 -5 0 -10 -13 -10 -29z m0 -71 c0
-16 -6 -30 -12 -33 -24 -8 -38 5 -38 33 0 16 6 30 13 33 23 8 37 -5 37 -33z"/>
<path d="M4190 3485 c0 -43 4 -75 10 -75 6 0 10 18 10 39 0 24 5 41 14 44 21
8 36 -13 36 -50 0 -18 5 -33 10 -33 13 0 13 41 0 75 -8 22 -15 26 -35 23 -22
-5 -25 -2 -25 23 0 16 -4 29 -10 29 -6 0 -10 -32 -10 -75z"/>
<path d="M4780 3550 c0 -5 5 -10 10 -10 6 0 10 5 10 10 0 6 -4 10 -10 10 -5 0
-10 -4 -10 -10z"/>
<path d="M4903 3485 c-1 -61 1 -71 7 -42 13 71 50 76 50 6 0 -21 5 -39 11 -39
6 0 9 19 7 48 -3 46 -4 47 -35 46 -29 -2 -32 1 -36 30 -2 17 -4 -5 -4 -49z"/>
<path d="M5130 3485 c0 -43 4 -75 10 -75 6 0 10 18 10 39 0 24 5 41 14 44 21
8 36 -13 36 -50 0 -18 5 -33 10 -33 13 0 13 41 0 75 -8 22 -15 26 -35 23 -22
-5 -25 -2 -25 23 0 16 -4 29 -10 29 -6 0 -10 -32 -10 -75z"/>
<path d="M6180 3550 c0 -5 5 -10 10 -10 6 0 10 5 10 10 0 6 -4 10 -10 10 -5 0
-10 -4 -10 -10z"/>
<path d="M7132 3489 l-2 -76 37 1 c32 1 39 5 47 29 14 39 -3 62 -42 61 -27 -2
-31 2 -35 30 -2 17 -5 -3 -5 -45z m68 -24 c0 -32 -25 -51 -45 -35 -19 16 -19
35 0 54 20 20 45 10 45 -19z"/>
<path d="M7240 3485 c0 -43 4 -75 10 -75 6 0 10 32 10 75 0 43 -4 75 -10 75
-6 0 -10 -32 -10 -75z"/>
<path d="M7640 3550 c0 -5 5 -10 10 -10 6 0 10 5 10 10 0 6 -4 10 -10 10 -5 0
-10 -4 -10 -10z"/>
<path d="M2932 3530 c0 -14 2 -19 5 -12 2 6 2 18 0 25 -3 6 -5 1 -5 -13z"/>
<path d="M6500 3480 c0 -40 4 -70 10 -70 6 0 10 16 10 36 0 34 1 35 33 32 28
-3 33 -7 38 -38 4 -23 6 -9 6 40 0 41 -2 60 -4 43 -4 -30 -7 -33 -39 -33 -31
0 -34 2 -34 30 0 17 -4 30 -10 30 -6 0 -10 -30 -10 -70z"/>
<path d="M7930 3498 c0 -28 2 -49 4 -47 8 9 13 99 5 99 -5 0 -9 -23 -9 -52z"/>
<path d="M2480 3526 c0 -8 -6 -17 -12 -19 -10 -4 -10 -6 0 -6 7 -1 12 -16 12
-41 0 -39 21 -64 38 -45 4 4 1 10 -5 12 -7 3 -13 20 -13 38 0 18 6 36 13 38
10 4 10 6 0 6 -7 1 -13 8 -13 16 0 8 -4 15 -10 15 -5 0 -10 -6 -10 -14z"/>
<path d="M3501 3528 c0 -10 -6 -18 -13 -18 -9 0 -9 -3 0 -12 7 -7 12 -29 12
-50 0 -31 4 -38 20 -38 11 0 20 5 20 10 0 6 -6 9 -12 8 -21 -5 -22 54 -2 69
16 11 16 13 2 13 -9 0 -19 8 -21 18 -4 16 -5 16 -6 0z"/>
<path d="M4835 3530 c-9 -15 -9 -71 1 -102 6 -19 44 -25 44 -8 0 6 -6 9 -12 8
-21 -5 -22 54 -2 69 16 11 16 13 2 13 -9 0 -18 8 -20 18 -3 14 -5 15 -13 2z"/>
<path d="M5070 3526 c0 -8 -6 -17 -12 -19 -10 -4 -10 -6 0 -6 7 -1 12 -16 12
-41 0 -39 21 -64 38 -45 4 4 1 10 -5 12 -7 3 -13 20 -13 38 0 18 6 36 13 38
10 4 10 6 0 6 -7 1 -13 8 -13 16 0 8 -4 15 -10 15 -5 0 -10 -6 -10 -14z"/>
<path d="M6240 3526 c0 -8 -6 -17 -12 -19 -10 -4 -10 -6 0 -6 7 -1 12 -16 12
-41 0 -39 21 -64 38 -45 4 4 1 10 -5 12 -7 3 -13 20 -13 38 0 18 6 36 13 38
10 4 10 6 0 6 -7 1 -13 8 -13 16 0 8 -4 15 -10 15 -5 0 -10 -6 -10 -14z"/>
<path d="M2103 3503 c3 -5 10 -27 16 -50 7 -24 15 -43 20 -43 5 0 15 17 23 38
l15 37 8 -37 c8 -44 21 -49 35 -13 18 47 22 75 12 75 -5 0 -13 -17 -17 -37
l-8 -38 -11 34 c-17 48 -32 49 -41 4 l-8 -38 -15 38 c-8 20 -19 37 -24 37 -5
0 -7 -3 -5 -7z"/>
<path d="M2385 3499 c-4 -6 -1 -10 6 -8 47 6 54 -16 8 -25 -25 -5 -30 -10 -27
-28 2 -19 10 -23 41 -25 36 -1 37 0 37 36 0 20 -5 42 -12 49 -15 15 -45 16
-53 1z m34 -69 c-14 -9 -29 -4 -29 10 0 12 34 18 39 7 2 -5 -3 -13 -10 -17z"/>
<path d="M2590 3504 c0 -4 8 -29 18 -56 16 -48 16 -50 -2 -64 -11 -7 -17 -17
-13 -20 14 -15 35 7 54 58 12 29 24 61 28 71 4 9 3 17 -3 17 -6 0 -16 -16 -22
-35 -13 -40 -25 -38 -35 5 -4 17 -11 30 -16 30 -5 0 -9 -3 -9 -6z"/>
<path d="M2701 3496 c-16 -19 -10 -66 10 -79 44 -28 95 25 69 72 -13 25 -61
29 -79 7z m57 -8 c27 -27 2 -75 -32 -62 -19 7 -22 60 -3 67 19 8 22 8 35 -5z"/>
<path d="M2812 3463 c3 -48 3 -48 41 -49 l37 -1 -1 51 -1 51 -8 -39 c-13 -67
-50 -71 -50 -5 0 21 -5 39 -11 39 -6 0 -9 -19 -7 -47z"/>
<path d="M3132 3498 c-7 -7 -12 -24 -12 -38 0 -14 5 -31 12 -38 15 -15 58 -16
58 -1 0 5 -4 8 -9 5 -19 -12 -41 7 -41 34 0 27 22 46 41 34 5 -3 9 0 9 5 0 15
-43 14 -58 -1z"/>
<path d="M3221 3455 l1 -50 8 39 c4 22 16 45 26 53 17 12 16 13 -9 11 -26 -2
-27 -5 -26 -53z"/>
<path d="M3292 3498 c-7 -7 -12 -24 -12 -38 0 -14 5 -31 12 -38 15 -15 68 -16
68 -1 0 6 -7 9 -15 5 -21 -8 -45 3 -45 20 0 9 12 14 35 14 38 0 40 2 25 31
-12 21 -50 25 -68 7z m58 -19 c0 -5 -11 -9 -25 -9 -26 0 -34 15 -12 23 16 5
37 -3 37 -14z"/>
<path d="M3397 3504 c-15 -15 -6 -24 12 -14 14 7 22 7 26 -1 8 -12 9 -11 -28
-27 -42 -18 -32 -47 16 -49 l38 -1 -3 46 c-3 42 -6 47 -28 50 -14 2 -29 0 -33
-4z m32 -74 c-14 -9 -29 -4 -29 10 0 12 34 18 39 7 2 -5 -3 -13 -10 -17z"/>
<path d="M3566 3494 c-32 -32 -11 -84 34 -84 17 0 30 5 30 11 0 6 -7 8 -16 5
-17 -6 -44 9 -44 25 0 5 16 9 35 9 36 0 46 15 23 38 -17 17 -44 15 -62 -4z
m54 -15 c0 -5 -12 -9 -26 -9 -22 0 -24 2 -14 14 12 15 40 11 40 -5z"/>
<path d="M3727 3504 c-15 -15 -6 -24 12 -14 14 7 22 7 26 -1 8 -12 9 -11 -28
-27 -42 -18 -32 -47 16 -49 l38 -1 -3 46 c-3 42 -6 47 -28 50 -14 2 -29 0 -33
-4z m32 -74 c-14 -9 -29 -4 -29 10 0 12 34 18 39 7 2 -5 -3 -13 -10 -17z"/>
<path d="M3820 3458 c0 -26 5 -48 10 -48 6 0 10 18 10 39 0 24 5 41 14 44 21
8 36 -13 36 -50 0 -18 5 -33 10 -33 13 0 13 56 0 80 -7 14 -20 19 -45 18 -35
-1 -35 -1 -35 -50z"/>
<path d="M4104 3495 c-7 -18 13 -45 33 -45 8 0 13 -6 10 -12 -2 -7 -14 -12
-26 -11 -11 2 -21 -2 -21 -7 0 -16 46 -11 61 6 11 14 10 18 -6 30 -10 8 -23
14 -28 14 -5 0 -7 6 -4 13 2 6 11 11 21 9 9 -2 16 2 16 8 0 16 -50 12 -56 -5z"/>
<path d="M4315 3499 c-4 -6 -1 -10 6 -8 47 6 54 -16 8 -25 -25 -5 -30 -10 -27
-28 2 -19 10 -23 41 -25 36 -1 37 0 37 36 0 20 -5 42 -12 49 -15 15 -45 16
-53 1z m34 -69 c-14 -9 -29 -4 -29 10 0 12 34 18 39 7 2 -5 -3 -13 -10 -17z"/>
<path d="M4411 3455 l1 -50 8 39 c4 22 16 45 26 53 17 12 16 13 -9 11 -26 -2
-27 -5 -26 -53z"/>
<path d="M4482 3498 c-7 -7 -12 -24 -12 -38 0 -14 5 -31 12 -38 15 -15 68 -16
68 -1 0 6 -7 9 -15 5 -21 -8 -45 3 -45 20 0 9 12 14 35 14 38 0 40 2 25 31
-12 21 -50 25 -68 7z m58 -19 c0 -5 -11 -9 -25 -9 -26 0 -34 15 -12 23 16 5
37 -3 37 -14z"/>
<path d="M4620 3507 c0 -15 34 -97 40 -97 4 0 14 15 20 33 l13 32 10 -32 c12
-39 24 -42 36 -10 16 43 21 77 12 77 -5 0 -13 -17 -18 -37 l-10 -38 -9 34
c-13 45 -30 50 -39 12 -8 -39 -21 -40 -28 -1 -4 17 -11 30 -17 30 -5 0 -10 -1
-10 -3z"/>
<path d="M4780 3460 c0 -27 5 -50 10 -50 6 0 10 23 10 50 0 28 -4 50 -10 50
-5 0 -10 -22 -10 -50z"/>
<path d="M5252 3498 c-15 -15 -16 -60 0 -76 15 -15 55 -16 64 0 5 8 2 9 -9 5
-22 -8 -47 2 -47 19 0 9 12 14 35 14 31 0 34 2 26 23 -9 25 -50 34 -69 15z
m39 -26 c-28 -4 -40 6 -21 18 9 6 20 4 29 -3 12 -10 11 -13 -8 -15z"/>
<path d="M5412 3498 c-7 -7 -12 -24 -12 -38 0 -14 5 -31 12 -38 15 -15 58 -16
58 -1 0 5 -4 8 -9 5 -19 -12 -41 7 -41 34 0 27 22 46 41 34 5 -3 9 0 9 5 0 15
-43 14 -58 -1z"/>
<path d="M5501 3496 c-16 -19 -10 -66 10 -79 44 -28 95 25 69 72 -13 25 -61
29 -79 7z m57 -8 c27 -27 2 -75 -32 -62 -19 7 -22 60 -3 67 19 8 22 8 35 -5z"/>
<path d="M5610 3458 c0 -26 5 -48 10 -48 6 0 10 15 10 34 0 69 49 66 51 -3 l1
-36 7 35 c4 20 11 41 15 48 13 22 36 -6 36 -44 0 -19 5 -34 10 -34 13 0 13 56
0 80 -8 14 -22 18 -75 17 l-65 0 0 -49z"/>
<path d="M5791 3456 c1 -48 2 -49 8 -16 4 20 11 41 15 48 13 22 36 -6 36 -44
0 -19 5 -34 10 -34 6 0 10 17 10 38 0 43 6 53 26 45 9 -3 14 -20 14 -44 0 -21
5 -39 10 -39 14 0 12 76 -2 88 -7 5 -39 9 -70 9 l-58 -1 1 -50z"/>
<path d="M5963 3465 l2 -50 38 -2 37 -1 0 49 c0 27 -4 49 -10 49 -5 0 -10 -18
-10 -39 0 -25 -5 -41 -15 -44 -17 -7 -27 6 -36 53 -7 31 -7 29 -6 -15z"/>
<path d="M6070 3458 c0 -26 5 -48 10 -48 6 0 10 18 10 39 0 24 5 41 14 44 21
8 36 -13 36 -50 0 -18 5 -33 10 -33 13 0 13 56 0 80 -7 14 -20 19 -45 18 -35
-1 -35 -1 -35 -50z"/>
<path d="M6180 3460 c0 -27 5 -50 10 -50 6 0 10 23 10 50 0 28 -4 50 -10 50
-5 0 -10 -22 -10 -50z"/>
<path d="M6293 3496 c3 -8 11 -33 18 -56 12 -38 11 -44 -6 -56 -10 -8 -16 -17
-12 -20 14 -15 36 8 55 58 11 29 23 61 27 71 4 9 3 17 -3 17 -5 0 -16 -17 -24
-37 l-14 -38 -14 38 c-8 20 -18 37 -23 37 -5 0 -7 -6 -4 -14z"/>
<path d="M6647 3503 c-14 -13 -7 -25 8 -13 8 6 19 9 25 5 18 -11 11 -22 -21
-29 -25 -5 -30 -10 -27 -28 2 -19 10 -23 41 -25 36 -1 37 0 37 32 0 18 -3 40
-6 49 -6 16 -45 22 -57 9z m32 -73 c-14 -9 -29 -4 -29 10 0 12 34 18 39 7 2
-5 -3 -13 -10 -17z"/>
<path d="M6740 3433 c0 -42 4 -73 10 -73 6 0 10 13 10 29 0 24 3 28 20 24 28
-7 50 14 50 47 0 35 -17 49 -58 48 l-32 -1 0 -74z m70 27 c0 -16 -6 -30 -12
-33 -24 -8 -38 5 -38 33 0 16 6 30 13 33 23 8 37 -5 37 -33z"/>
<path d="M6861 3430 c1 -48 4 -64 8 -45 5 25 11 30 36 30 23 0 32 6 39 28 14
40 -2 62 -48 62 l-36 1 1 -76z m69 35 c0 -32 -25 -51 -45 -35 -19 16 -19 35 0
54 20 20 45 10 45 -19z"/>
<path d="M6960 3506 c0 -2 9 -25 20 -50 20 -48 18 -76 -6 -76 -8 0 -14 -4 -14
-10 0 -14 26 -12 37 3 17 21 56 127 49 134 -3 3 -13 -11 -23 -33 l-16 -39 -15
38 c-8 20 -19 37 -23 37 -5 0 -9 -2 -9 -4z"/>
<path d="M7294 3485 c-15 -23 -15 -27 0 -50 29 -44 86 -28 86 25 0 53 -57 69
-86 25z m60 -1 c20 -19 20 -29 0 -48 -19 -20 -54 -5 -54 24 0 15 21 37 37 40
1 0 9 -7 17 -16z"/>
<path d="M7415 3494 c-33 -33 -6 -90 38 -82 31 6 34 -3 11 -27 -9 -9 -24 -13
-35 -10 -11 4 -19 2 -19 -4 0 -6 13 -11 29 -11 41 0 61 32 61 96 l0 51 -35 1
c-19 1 -41 -5 -50 -14z m53 -6 c18 -18 15 -46 -6 -57 -33 -18 -58 29 -30 57 7
7 15 12 18 12 3 0 11 -5 18 -12z"/>
<path d="M7532 3498 c-17 -17 -15 -63 3 -78 8 -7 24 -10 35 -7 15 4 20 0 20
-13 0 -20 -23 -32 -45 -24 -8 4 -15 1 -15 -5 0 -15 53 -14 68 1 7 7 12 39 12
75 l0 63 -33 0 c-18 0 -38 -5 -45 -12z m58 -38 c0 -16 -6 -30 -12 -33 -24 -8
-38 5 -38 33 0 16 6 30 13 33 23 8 37 -5 37 -33z"/>
<path d="M7640 3460 c0 -27 5 -50 10 -50 6 0 10 23 10 50 0 28 -4 50 -10 50
-5 0 -10 -22 -10 -50z"/>
<path d="M7690 3458 c0 -26 5 -48 10 -48 6 0 10 15 10 33 0 37 15 58 36 50 9
-3 14 -20 14 -44 0 -21 5 -39 10 -39 15 0 12 76 -3 88 -7 6 -27 10 -45 10 -32
-1 -32 -2 -32 -50z"/>
<path d="M7812 3498 c-17 -17 -15 -63 3 -78 8 -7 24 -10 35 -7 15 4 20 0 20
-13 0 -20 -23 -32 -45 -24 -8 4 -15 1 -15 -5 0 -15 53 -14 68 1 7 7 12 39 12
75 l0 63 -33 0 c-18 0 -38 -5 -45 -12z m58 -38 c0 -16 -6 -30 -12 -33 -24 -8
-38 5 -38 33 0 16 6 30 13 33 23 8 37 -5 37 -33z"/>
<path d="M6390 3420 c0 -5 5 -10 10 -10 6 0 10 5 10 10 0 6 -4 10 -10 10 -5 0
-10 -4 -10 -10z"/>
<path d="M7930 3420 c0 -5 5 -10 10 -10 6 0 10 5 10 10 0 6 -4 10 -10 10 -5 0
-10 -4 -10 -10z"/>
</g>
</svg>
